<svg width="64" height="64" fill="none" xmlns="http://www.w3.org/2000/svg"><path d="M17.867 48h-6.8c-3.814 0-5.734-1.92-5.734-5.733v-31.2c0-3.814 1.92-5.734 5.734-5.734h11.466c3.814 0 5.734 1.92 5.734 5.734V16m7.466 0v-4.933c0-3.814 1.92-5.734 5.734-5.734h11.466c3.814 0 5.734 1.92 5.734 5.734v31.2c0 3.813-1.92 5.733-5.734 5.733H46.32" stroke="#E96F6F" stroke-width="1.5" stroke-miterlimit="10" stroke-linecap="round" stroke-linejoin="round"/><path d="M26.667 29.333h10.666m-10.666 8h10.666M32 58.667v-8" stroke="#B3B3B3" stroke-width="1.5" stroke-miterlimit="10" stroke-linecap="round" stroke-linejoin="round"/><path d="M46.32 22.453v29.76c0 4.294-2.133 6.454-6.427 6.454H24.32c-4.293 0-6.453-2.16-6.453-6.454v-29.76c0-4.293 2.16-6.453 6.453-6.453h15.573c4.294 0 6.427 2.16 6.427 6.453z" stroke="#2E2E2E" stroke-width="1.5" stroke-miterlimit="10" stroke-linecap="round" stroke-linejoin="round"/></svg>