<svg width="70" height="70" fill="none" xmlns="http://www.w3.org/2000/svg"><g filter="url(#filter0_d)"><path d="M29 49h12c10 0 14-4 14-14V23c0-10-4-14-14-14H29c-10 0-14 4-14 14v12c0 10 4 14 14 14z" fill="#E96F6F"/></g><path d="M47 36.596c0 .432-.096.876-.3 1.308-.205.432-.47.84-.818 1.224-.589.648-1.237 1.116-1.97 1.416a6.05 6.05 0 01-2.344.456c-1.226 0-2.536-.288-3.918-.876-1.382-.588-2.764-1.38-4.134-2.376a34.53 34.53 0 01-3.942-3.36 34.107 34.107 0 01-3.353-3.924c-.986-1.368-1.779-2.736-2.356-4.092-.577-1.368-.865-2.676-.865-3.924a6.2 6.2 0 01.433-2.316 5.525 5.525 0 011.382-2.004c.769-.756 1.61-1.128 2.5-1.128.336 0 .672.072.973.216.312.144.589.36.805.672l2.788 3.924c.217.3.373.576.481.84.108.252.168.504.168.732 0 .288-.084.576-.252.852a4.082 4.082 0 01-.673.852l-.913.948a.642.642 0 00-.193.48c0 .096.012.18.036.276.036.096.072.168.096.24.217.396.59.912 1.118 1.536.54.624 1.118 1.26 1.743 1.896a36.124 36.124 0 001.91 1.764c.626.528 1.142.888 1.55 1.104.061.024.133.06.217.096a.83.83 0 00.3.048.66.66 0 00.493-.204l.914-.9c.3-.3.589-.528.865-.672.276-.168.553-.252.853-.252.229 0 .47.048.733.156.265.108.541.264.842.468l3.978 2.82c.312.216.529.468.66.768.12.3.193.6.193.936z" stroke="#fff" stroke-width="1.5" stroke-miterlimit="10"/><path d="M43 25c0-.686-.537-1.737-1.337-2.594C40.93 21.617 39.96 21 39 21m8 4c0-4.423-3.577-8-8-8" stroke="#fff" stroke-width="1.5" stroke-linecap="round" stroke-linejoin="round"/><defs><filter id="filter0_d" x="0" y="0" width="70" height="70" filterUnits="userSpaceOnUse" color-interpolation-filters="sRGB"><feFlood flood-opacity="0" result="BackgroundImageFix"/><feColorMatrix in="SourceAlpha" values="0 0 0 0 0 0 0 0 0 0 0 0 0 0 0 0 0 0 127 0" result="hardAlpha"/><feOffset dy="6"/><feGaussianBlur stdDeviation="7.5"/><feComposite in2="hardAlpha" operator="out"/><feColorMatrix values="0 0 0 0 0.9125 0 0 0 0 0.43724 0 0 0 0 0.43724 0 0 0 0.5 0"/><feBlend in2="BackgroundImageFix" result="effect1_dropShadow"/><feBlend in="SourceGraphic" in2="effect1_dropShadow" result="shape"/></filter></defs></svg>