<svg width="48" height="48" fill="none" xmlns="http://www.w3.org/2000/svg"><path d="M30 43.25H18c-4.926 0-8.18-.99-10.22-3.03C5.74 38.18 4.75 34.926 4.75 30V18c0-4.926.99-8.18 3.03-10.22C9.82 5.74 13.074 4.75 18 4.75h12c4.926 0 8.18.99 10.22 3.03 2.04 2.04 3.03 5.294 3.03 10.22v12c0 4.926-.99 8.18-3.03 10.22-2.04 2.04-5.294 3.03-10.22 3.03z" stroke="#2E2E2E" stroke-width="1.5" stroke-linecap="round" stroke-linejoin="round"/><path d="M17 17.142l14.142 14.142M17 31.142L31.142 17" stroke="#E96F6F" stroke-width="1.5" stroke-linecap="round"/></svg>