<svg width="32" height="32" fill="none" xmlns="http://www.w3.org/2000/svg"><path d="M4.227 9.92L16 16.733 27.693 9.96M16 28.813V16.72" stroke="#B3B3B3" stroke-width="1.5" stroke-linecap="round" stroke-linejoin="round"/><path d="M28.813 12.227v7.546c0 .067 0 .12-.013.187a5.227 5.227 0 00-3.467-1.293c-1.253 0-2.413.44-3.333 1.173-1.227.973-2 2.48-2 4.16 0 1 .28 1.947.773 2.747.12.213.267.413.427.6l-2.44 1.346c-1.52.854-4 .854-5.52 0l-7.12-3.946c-1.613-.894-2.933-3.134-2.933-4.974v-7.546c0-1.84 1.32-4.08 2.933-4.974l7.12-3.946c1.52-.854 4-.854 5.52 0l7.12 3.946c1.613.894 2.933 3.134 2.933 4.974z" stroke="#2E2E2E" stroke-width="1.5" stroke-linecap="round" stroke-linejoin="round"/><path d="M23.253 24.04l1.347 1.28 2.787-2.693m3.28 1.253c.026 1-.24 1.947-.72 2.76-.267.48-.627.92-1.027 1.28a5.315 5.315 0 01-3.48 1.413 5.276 5.276 0 01-4.613-2.493A5.19 5.19 0 0120 24.107c-.04-1.68.707-3.2 1.907-4.2a5.371 5.371 0 013.306-1.24 5.333 5.333 0 015.454 5.213z" stroke="#E96F6F" stroke-width="1.5" stroke-linecap="round" stroke-linejoin="round"/></svg>