<svg width="64" height="64" fill="none" xmlns="http://www.w3.org/2000/svg"><path d="M19.947 48.933l8.266 6.4c1.067 1.067 3.467 1.6 5.067 1.6h10.133c3.2 0 6.667-2.4 7.467-5.6l6.4-19.466c1.333-3.734-1.067-6.934-5.067-6.934H41.547c-1.6 0-2.934-1.333-2.667-3.2l1.333-8.533c.534-2.4-1.066-5.067-3.466-5.867-2.134-.8-4.8.267-5.867 1.867L19.947 25.467" stroke="#E96F6F" stroke-width="1.5" stroke-miterlimit="10"/><path d="M6.347 48.933V22.8c0-3.733 1.6-5.067 5.333-5.067h2.667c3.733 0 5.333 1.334 5.333 5.067v26.133c0 3.734-1.6 5.067-5.333 5.067H11.68c-3.733 0-5.333-1.333-5.333-5.067z" stroke="#2E2E2E" stroke-width="1.5" stroke-linecap="round" stroke-linejoin="round"/></svg>