<svg width="33" height="32" fill="none" xmlns="http://www.w3.org/2000/svg"><path d="M16.5 7.32v20" stroke="#B3B3B3" stroke-width="1.5" stroke-linecap="round" stroke-linejoin="round"/><path d="M29.833 22.32V6.227c0-1.6-1.306-2.787-2.893-2.654h-.08c-2.8.24-7.053 1.667-9.427 3.16l-.226.147c-.387.24-1.027.24-1.414 0l-.333-.2C13.087 5.2 8.847 3.787 6.047 3.56c-1.587-.133-2.88 1.067-2.88 2.653V22.32c0 1.28 1.04 2.48 2.32 2.64l.386.053c2.894.387 7.36 1.854 9.92 3.254l.054.026c.36.2.933.2 1.28 0 2.56-1.413 7.04-2.893 9.946-3.28l.44-.053c1.28-.16 2.32-1.36 2.32-2.64z" stroke="#2E2E2E" stroke-width="1.5" stroke-linecap="round" stroke-linejoin="round"/><path d="M10.833 11.32h-3m4 4h-4" stroke="#E96F6F" stroke-width="1.5" stroke-linecap="round" stroke-linejoin="round"/></svg>