<svg width="32" height="32" fill="none" xmlns="http://www.w3.org/2000/svg"><path d="M29.333 18.667v4c0 2.213-1.786 4-4 4H24m5.333-8h-4c-.733 0-1.333-.6-1.333-1.334v-4C24 12.6 24.6 12 25.333 12h1.72m2.28 6.667V16l-2.28-4M24 26.667C24 25.2 22.8 24 21.333 24M24 26.667a2.667 2.667 0 01-5.333 0m5.333 0A2.667 2.667 0 0021.333 24m0 0a2.675 2.675 0 00-2.666 2.667M21.333 24a2.667 2.667 0 00-2.666 2.667m0 0h-5.334m0 0c0-1.467-1.2-2.667-2.666-2.667m2.666 2.667a2.667 2.667 0 01-5.333 0m5.333 0A2.667 2.667 0 0010.667 24m0 0A2.675 2.675 0 008 26.667M10.667 24A2.667 2.667 0 008 26.667m0 0H6.667c-2.214 0-4-1.787-4-4v-4h14.666C18.8 18.667 20 17.467 20 16V6.667h2.453c.96 0 1.84.52 2.32 1.346L27.053 12" stroke="#2E2E2E" stroke-width="1.5" stroke-linecap="round" stroke-linejoin="round"/><path d="M20 2.667V16c0 1.467-1.2 2.667-2.667 2.667H2.667V10.16A5.198 5.198 0 006.787 12a5.125 5.125 0 003.466-1.413c.414-.347.76-.787 1.027-1.267.48-.813.747-1.773.72-2.773a5.31 5.31 0 00-1.813-3.88H20z" stroke="#B3B3B3" stroke-width="1.5" stroke-linecap="round" stroke-linejoin="round"/><path d="M4.587 6.707l1.346 1.28L8.72 5.293M12 6.547c.027 1-.24 1.96-.72 2.773-.267.48-.613.92-1.027 1.267A5.124 5.124 0 016.787 12a5.198 5.198 0 01-4.12-1.84 4.662 4.662 0 01-.494-.653 5.155 5.155 0 01-.84-2.72A5.319 5.319 0 013.24 2.573a5.371 5.371 0 013.307-1.24c1.4-.026 2.68.48 3.64 1.334A5.31 5.31 0 0112 6.547z" stroke="#E96F6F" stroke-width="1.5" stroke-linecap="round" stroke-linejoin="round"/></svg>