<svg width="20" height="17" fill="none" xmlns="http://www.w3.org/2000/svg"><path d="M1.412 7.868h0l.009-.004-.195-.46.195.46h.001l.005-.002.019-.009.075-.031.286-.12L2.85 7.26l3.376-1.427c2.595-1.097 5.574-2.36 7.11-3.017h0l.007-.003c.582-.26 1.869-.81 3.014-1.297l1.499-.635.468-.198.128-.054.034-.014.004-.002.006-.003.043-.015c.04-.013.097-.03.166-.047.144-.035.31-.058.454-.045.142.012.21.054.247.098.037.045.118.185.086.557h0v.008c-.036.51-.254 1.962-.527 3.78l-.339 2.277-.869 5.602-.295 1.913-.084.542-.022.144-.006.037-.001.01v.002h0l.493.076-.494-.076-.002.017-.002.015h0v.001h0v.008l-.003.021a1.93 1.93 0 01-.121.456c-.11.269-.262.442-.467.492-.11.026-.274.023-.496-.03a3.582 3.582 0 01-.68-.251 5.576 5.576 0 01-.945-.566l-.006-.005-.006-.005c-.059-.045-.28-.193-.579-.394l-.154-.103a163.9 163.9 0 01-1.45-.984c-1.103-.758-2.317-1.622-2.957-2.178-.14-.123-.232-.261-.251-.383-.012-.081-.012-.264.307-.55h0l.008-.009a198.294 198.294 0 005.385-5.271c.186-.192.368-.441.495-.684.063-.121.121-.256.155-.394a.855.855 0 00-.02-.521.666.666 0 00-.549-.413 1.243 1.243 0 00-.564.083c-.358.127-.844.402-1.492.855h0l-.003.002a409.906 409.906 0 01-7.04 4.878l-.119.081-.028.02a1.703 1.703 0 01-.423.135c-.318.057-.824.075-1.514-.138h0a87.616 87.616 0 01-3.004-.992l-.222-.078-.005-.002a.527.527 0 01-.036-.034C.512 8.501.501 8.467.5 8.46h0c0-.002 0-.004.002-.007a.306.306 0 01.07-.099c.108-.115.347-.289.84-.486z" stroke="#E96F6F"/></svg>