<svg width="34" height="34" fill="none" xmlns="http://www.w3.org/2000/svg"><path d="M17 33c8.837 0 16-7.163 16-16S25.837 1 17 1 1 8.163 1 17s7.163 16 16 16z" stroke="#2E2E2E" stroke-width="1.5" stroke-linecap="round" stroke-linejoin="round"/><path d="M17 26a9 9 0 100-18 9 9 0 000 18z" stroke="#B3B3B3" stroke-width="1.5" stroke-linecap="round" stroke-linejoin="round"/><path d="M16.991 14.6c.187 0 .338-.134.338-.3 0-.166-.151-.3-.338-.3-.186 0-.338.134-.338.3 0 .166.152.3.338.3zm0 5.4c.187 0 .338-.134.338-.3 0-.166-.151-.3-.338-.3-.186 0-.338.134-.338.3 0 .166.152.3.338.3zm-2.653-4.02c.187 0 .338-.134.338-.3 0-.166-.151-.3-.338-.3-.187 0-.338.134-.338.3 0 .166.151.3.338.3zm.129 2.655c.187 0 .338-.134.338-.3 0-.166-.151-.3-.338-.3-.186 0-.338.134-.338.3 0 .166.152.3.338.3zm5.178-.015c.186 0 .338-.134.338-.3 0-.166-.152-.3-.338-.3-.187 0-.338.134-.338.3 0 .166.151.3.338.3zm.017-2.795c.187 0 .338-.135.338-.3 0-.166-.151-.3-.338-.3-.187 0-.338.134-.338.3 0 .165.151.3.338.3z" stroke="#E96F6F" stroke-width="1.5" stroke-linecap="round" stroke-linejoin="round"/></svg>