<svg width="48" height="48" fill="none" xmlns="http://www.w3.org/2000/svg"><path d="M36.28 43.24c-1.76.52-3.84.76-6.28.76H18c-2.44 0-4.52-.24-6.28-.76.44-5.2 5.78-9.3 12.28-9.3 6.5 0 11.84 4.1 12.28 9.3zm-5.12-22.08c0 3.96-3.2 7.18-7.16 7.18s-7.16-3.22-7.16-7.18c0-3.96 3.2-7.16 7.16-7.16s7.16 3.2 7.16 7.16z" opacity=".6" stroke="#fff" stroke-width="1.5" stroke-linecap="round" stroke-linejoin="round"/><path d="M44 18v12c0 7.56-2.28 11.7-7.72 13.24-1.76.52-3.84.76-6.28.76H18c-2.44 0-4.52-.24-6.28-.76C6.28 41.7 4 37.56 4 30V18C4 8 8 4 18 4h12c10 0 14 4 14 14z" stroke="#fff" stroke-width="1.5" stroke-linecap="round" stroke-linejoin="round"/></svg>