<svg width="24" height="14" fill="none" xmlns="http://www.w3.org/2000/svg"><path d="M22.253 1.014l-.006.02-.005.021c-.058.285-.269.767-.594 1.373a31.63 31.63 0 01-1.104 1.87 64.963 64.963 0 01-1.401 2.121l-.016.023-.081.12a4.26 4.26 0 00-.029.042l-.013.021a.31.31 0 00-.005.008v.001c-.119.183-.284.44-.309.743-.027.343.121.636.33.91.157.232.462.533.746.814l.027.026.013.013c.32.316.656.65.925.97h0l.006.008c.525.6.975 1.142 1.32 1.615.35.479.566.851.655 1.12a.643.643 0 01.036.25c-.004.042-.015.054-.018.059-.012.013-.097.088-.385.088h-2.462a.744.744 0 01-.373-.087c-.118-.063-.25-.169-.436-.357a15.15 15.15 0 01-.516-.564l-.162-.181a28.742 28.742 0 00-1.042-1.114h0l-.006-.007c-1.469-1.43-2.21-1.74-2.793-1.74-.261 0-.65.025-.908.349-.119.149-.175.32-.204.479a2.91 2.91 0 00-.039.525v2.238c0 .245-.039.27-.067.288l-.005.003c-.106.072-.405.168-1.187.168-2.4 0-5.127-1.484-7.097-4.332h0l-.004-.005c-1.508-2.127-2.46-3.99-3.036-5.393a14.787 14.787 0 01-.598-1.731c-.123-.458-.16-.733-.16-.828a.49.49 0 01.021-.15l.001-.003h0l.002-.002a.208.208 0 01.05-.024.876.876 0 01.27-.032h2.462c.237 0 .315.05.361.093.072.066.157.2.276.516.61 1.81 1.434 3.503 2.217 4.752.391.624.78 1.151 1.138 1.529.177.188.358.351.538.471.17.113.392.224.64.224a1 1 0 00.41-.078.798.798 0 00.375-.352c.144-.26.173-.618.173-1.012V3.218l-.002-.015c-.059-.94-.344-1.483-.626-1.87a6.379 6.379 0 00-.168-.219l-.014-.017a2.74 2.74 0 01-.122-.161c-.048-.07-.053-.098-.053-.112L9.2.82a.102.102 0 01.022-.03c.02-.02.053-.04.11-.04H13.2c.093 0 .137.012.152.018a.36.36 0 01.027.082c.014.068.024.166.024.306v4.938c0 .626.3 1.21.887 1.21.559 0 .95-.357 1.498-.911l.01-.01.008-.01c.928-1.04 1.707-2.351 2.248-3.387a25.428 25.428 0 00.851-1.799l.012-.028.002-.006a.705.705 0 01.203-.292c.07-.054.187-.111.408-.111h2.462c.186 0 .265.029.294.043v.015a.67.67 0 01-.034.206zM22.299.8h-.001.001z" stroke="#E96F6F"/></svg>