<svg width="42" height="42" fill="none" xmlns="http://www.w3.org/2000/svg"><mask id="a" fill="#fff"><path d="M41.25 21.217v-.434c-8.968-.29-13.061-.506-16.345-3.688C21.723 13.81 21.492 9.718 21.217.75h-.434c-.29 8.968-.506 13.061-3.688 16.345C13.81 20.277 9.718 20.508.75 20.783v.434c8.968.29 13.061.506 16.345 3.688 3.182 3.284 3.413 7.377 3.688 16.345h.434c.29-8.968.506-13.061 3.688-16.345 3.284-3.182 7.377-3.413 16.345-3.688z"/></mask><path d="M41.25 20.783h1v-.968l-.968-.031-.032.999zm-16.345-3.688l-.718.696.011.01.011.012.696-.718zM21.217.75l1-.03-.03-.97h-.97v1zm-.434 0v-1h-.968l-.031.968.999.032zm-3.688 16.345l.696.718.01-.011.012-.011-.718-.696zM.75 20.783l-.03-1-.97.03v.97h1zm0 .434h-1v.968l.968.031.032-.999zm16.345 3.688l.718-.696-.011-.01-.011-.012-.696.718zm3.688 16.345l-1 .03.03.97h.97v-1zm.434 0v1h.968l.031-.968-.999-.032zm3.688-16.345l-.696-.718-.01.011-.012.011.718.696zm17.345-3.688v-.434h-2v.434h2zm-.968-1.433c-4.51-.146-7.687-.272-10.148-.743-2.41-.46-4.062-1.239-5.533-2.664l-1.392 1.436c1.813 1.756 3.85 2.677 6.55 3.193 2.648.506 6 .633 10.459.776l.064-1.998zm-15.659-3.385c-1.426-1.472-2.208-3.124-2.67-5.533-.472-2.46-.598-5.638-.736-10.147l-2 .062c.137 4.459.264 7.812.772 10.461.518 2.7 1.442 4.737 3.198 6.549l1.436-1.392zM21.217-.25h-.434v2h.434v-2zm-1.433.968c-.146 4.51-.272 7.687-.743 10.148-.46 2.41-1.239 4.062-2.664 5.533l1.436 1.392c1.756-1.813 2.677-3.85 3.193-6.55.506-2.648.633-6 .776-10.459L19.784.718zm-3.385 15.659c-1.472 1.426-3.124 2.208-5.533 2.67-2.46.472-5.638.598-10.147.736l.062 2c4.459-.137 7.812-.264 10.461-.772 2.7-.518 4.737-1.442 6.549-3.198l-1.392-1.436zM-.25 20.783v.434h2v-.434h-2zm.968 1.433c4.51.146 7.687.272 10.148.743 2.41.46 4.062 1.239 5.533 2.664l1.392-1.436c-1.813-1.756-3.85-2.677-6.55-3.193-2.648-.506-6-.633-10.459-.776l-.064 1.998zm15.659 3.385c1.426 1.472 2.208 3.124 2.67 5.533.472 2.46.598 5.638.736 10.147l2-.062c-.137-4.459-.264-7.812-.772-10.461-.518-2.7-1.442-4.737-3.198-6.549l-1.436 1.392zm4.406 16.649h.434v-2h-.434v2zm1.433-.968c.146-4.51.272-7.687.743-10.148.46-2.41 1.239-4.062 2.664-5.533l-1.436-1.392c-1.756 1.813-2.677 3.85-3.193 6.55-.506 2.648-.633 6-.776 10.459l1.998.064zm3.385-15.659c1.472-1.426 3.124-2.208 5.533-2.67 2.46-.472 5.638-.598 10.147-.736l-.062-2c-4.459.137-7.812.264-10.461.772-2.7.518-4.737 1.442-6.549 3.198l1.392 1.436z" fill="#E96F6F" mask="url(#a)"/></svg>