<svg width="96" height="96" fill="none" xmlns="http://www.w3.org/2000/svg"><path d="M49.04 38.209h17.277c-.406 6.533-3.588 12.416-8.582 15.884l1.377 2.514c6.263-4.22 10.101-11.684 10.101-19.824 0-4.375-1.086-10.356-2.98-16.41-.185-.595-.736-1-1.36-1H38.732l1.561 2.852h23.525c1.41 4.736 2.309 9.472 2.504 13.132H47.48l1.56 2.852z" fill="#E96F6F"/><path fill-rule="evenodd" clip-rule="evenodd" d="M49.426 62.301l-2.824-5.158c-9.05-.761-16.29-8.852-16.918-18.934h6.555l-1.561-2.852h-5c.112-2.13.46-4.613 1.018-7.276l-2.052-3.748c-1.198 4.674-1.857 9.077-1.857 12.45 0 12.305 8.753 22.409 19.787 23.216v16.184h-5.903a1.426 1.426 0 000 2.852h14.657a1.426 1.426 0 000-2.852h-5.902V62.301z" fill="#E96F6F"/><path fill-rule="evenodd" clip-rule="evenodd" d="M81.941 14.059C72.875 4.993 60.821 0 48 0 35.179 0 23.125 4.993 14.059 14.059 4.993 23.125 0 35.179 0 48a47.86 47.86 0 007.375 25.577 48.15 48.15 0 0019.181 17.38l5.394 2.294A47.84 47.84 0 0048 96c12.821 0 24.875-4.993 33.941-14.059C91.007 72.875 96 60.821 96 48c0-12.821-4.993-24.875-14.059-33.941zM9.787 72.056a45.303 45.303 0 0018.044 16.35l5.073 2.157A45.005 45.005 0 0048 93.15c12.06 0 23.397-4.697 31.925-13.224C88.452 71.397 93.149 60.059 93.149 48c0-12.06-4.697-23.397-13.224-31.925C71.397 7.548 60.059 2.851 48 2.851c-12.06 0-23.397 4.697-31.925 13.224C7.548 24.603 2.851 35.941 2.851 48a45.014 45.014 0 006.936 24.056z" fill="#2E2E2E"/><path fill-rule="evenodd" clip-rule="evenodd" d="M69.58 80.682a1.427 1.427 0 01-.927-.704L32.19 13.363a1.427 1.427 0 01.706-2.002A39.407 39.407 0 0148 8.377c21.847 0 39.62 17.775 39.62 39.623 0 12.905-6.317 25.04-16.898 32.46a1.423 1.423 0 01-1.143.222zM84.768 48c0-20.276-16.495-36.77-36.769-36.77-4.313 0-8.519.736-12.527 2.19l34.9 63.76C79.416 70.235 84.769 59.443 84.769 48zM25.277 15.54a1.425 1.425 0 012.07.483l36.46 66.614a1.426 1.426 0 01-.706 2.002A39.384 39.384 0 0148 87.623C26.152 87.623 8.377 69.848 8.377 48c0-12.904 6.318-25.04 16.9-32.46zM11.229 48c0 20.276 16.495 36.77 36.771 36.77 4.312 0 8.518-.736 12.526-2.19l-34.9-63.76C16.582 25.766 11.229 36.557 11.229 48z" fill="#2E2E2E"/></svg>