<svg width="96" height="96" fill="none" xmlns="http://www.w3.org/2000/svg"><g clip-path="url(#clip0)"><path d="M90.016 44.115a1.311 1.311 0 00.089-1.256l-5.093-11.11a1.314 1.314 0 00-1.193-.765H69a1.312 1.312 0 00-1.313 1.312v11.11A1.313 1.313 0 0069 44.72h19.912a1.311 1.311 0 001.104-.604zm-19.704-2.021V33.61h12.665l3.89 8.484H70.311z" fill="#2E2E2E"/><path d="M95.88 42.862l-7.5-16.365a1.313 1.313 0 00-1.192-.765H65.061V18.42a1.314 1.314 0 00-1.312-1.313H1.312A1.314 1.314 0 000 18.42v48.097a1.314 1.314 0 001.313 1.313h5.565c-.023.277-.038.555-.038.84a10.219 10.219 0 1020.438 0c0-.285-.023-.563-.045-.84h35.25c-.023.277-.045.555-.045.84a10.219 10.219 0 1020.437 0c0-.285-.022-.563-.045-.84h11.858A1.314 1.314 0 0096 66.517V43.41a1.218 1.218 0 00-.12-.548zM2.625 65.205V61.08h7.59a10.35 10.35 0 00-2.76 4.125h-4.83zm14.43 11.062a7.6 7.6 0 01-7.59-7.597 7.677 7.677 0 017.59-7.59 7.684 7.684 0 017.598 7.59 7.602 7.602 0 01-7.598 7.597zm45.383-11.062H26.661a10.239 10.239 0 00-2.767-4.125h38.543v4.125zm0-6.75H2.624V19.732h59.813v38.723zM72.66 76.267a7.602 7.602 0 01-7.597-7.597 7.594 7.594 0 1112.963 5.369 7.6 7.6 0 01-5.366 2.228zm20.715-22.41h-2.498V51.36h2.498v2.497zm0-5.122h-3.81a1.31 1.31 0 00-1.313 1.312v5.123a1.31 1.31 0 001.313 1.312h3.81v8.723H82.26a10.21 10.21 0 00-17.198-3.368v-33.48h21.285l7.028 15.338v5.04z" fill="#2E2E2E"/><path d="M72.656 63.422a5.25 5.25 0 100 10.5 5.25 5.25 0 000-10.5zm0 7.875a2.625 2.625 0 110-5.25 2.625 2.625 0 010 5.25zm-55.599-7.875a5.25 5.25 0 100 10.5 5.25 5.25 0 000-10.5zm0 7.875a2.625 2.625 0 110-5.25 2.625 2.625 0 010 5.25z" fill="#E96F6F"/></g><defs><clipPath id="clip0"><path fill="#fff" d="M0 0h96v96H0z"/></clipPath></defs></svg>