<svg width="96" height="96" fill="none" xmlns="http://www.w3.org/2000/svg"><path d="M46.5 7.5c-4.964 0-9 4.037-9 9s4.036 9 9 9 9-4.037 9-9-4.036-9-9-9zm0 15c-3.309 0-6-2.691-6-6s2.691-6 6-6 6 2.691 6 6-2.691 6-6 6zm0 6c-4.964 0-9 4.036-9 9s4.036 9 9 9 9-4.036 9-9-4.036-9-9-9zm0 15c-3.309 0-6-2.691-6-6s2.691-6 6-6 6 2.691 6 6-2.691 6-6 6z" fill="#E96F6F"/><path d="M42.434 14.564l2.121-2.121 3 3-2.121 2.12-3-3zM46.5 36H51v3h-4.5v-3zM42 79.5H21a4.505 4.505 0 00-4.5 4.5c0 2.481 2.019 4.5 4.5 4.5h21c2.481 0 4.5-2.019 4.5-4.5s-2.019-4.5-4.5-4.5zm0 6H21c-.826 0-1.5-.672-1.5-1.5s.674-1.5 1.5-1.5h21a1.501 1.501 0 010 3zm9-36H12a1.5 1.5 0 00-1.5 1.5v24c0 .83.672 1.5 1.5 1.5h39a1.5 1.5 0 001.5-1.5V51a1.5 1.5 0 00-1.5-1.5zm-1.5 24h-36v-21h36v21z" fill="#E96F6F"/><path d="M22.5 61.5h3V60h21v-3h-21v-1.5h-3V57h-6v3h6v1.5zm13.5 9h3V69h7.5v-3H39v-1.5h-3V66H16.5v3H36v1.5zM12 21h18c2.481 0 4.5-2.019 4.5-4.5S32.481 12 30 12H12a4.505 4.505 0 00-4.5 4.5c0 2.481 2.019 4.5 4.5 4.5zm0-6h18c.826 0 1.5.674 1.5 1.5S30.826 18 30 18H12c-.826 0-1.5-.674-1.5-1.5S11.174 15 12 15zm18 27c2.481 0 4.5-2.019 4.5-4.5S32.481 33 30 33H12a4.505 4.505 0 00-4.5 4.5c0 2.481 2.019 4.5 4.5 4.5h18zm-19.5-4.5c0-.827.674-1.5 1.5-1.5h18c.826 0 1.5.673 1.5 1.5S30.826 39 30 39H12c-.826 0-1.5-.673-1.5-1.5zm1.5-12h18v3H12v-3z" fill="#E96F6F"/><path d="M93 19.5H66a1.5 1.5 0 00-1.5 1.5v30c0 .83.672 1.5 1.5 1.5h6v6c0 .83.672 1.5 1.5 1.5H75v18c0 .828-.674 1.5-1.5 1.5h-12V9c0-4.136-3.364-7.5-7.5-7.5H9C4.864 1.5 1.5 4.864 1.5 9v78c0 4.135 3.364 7.5 7.5 7.5h45c3.621 0 6.651-2.582 7.349-6H75c4.963 0 9-4.037 9-9V60h1.5a1.5 1.5 0 001.5-1.5v-6h6a1.5 1.5 0 001.5-1.5V21a1.5 1.5 0 00-1.5-1.5zM58.5 87c0 2.481-2.019 4.5-4.5 4.5H9A4.505 4.505 0 014.5 87V9c0-2.481 2.019-4.5 4.5-4.5h45c2.481 0 4.5 2.019 4.5 4.5v78zM75 85.5H61.5v-3h12c2.481 0 4.5-2.019 4.5-4.5V66h3v13.5c0 3.309-2.691 6-6 6zM81 63h-3v-3h3v3zm3-6h-9v-4.5h9V57zm7.5-7.5h-24v-27h24v27z" fill="#2E2E2E"/><path d="M72 40.5h15a1.5 1.5 0 001.5-1.5V27a1.5 1.5 0 00-1.5-1.5H72a1.5 1.5 0 00-1.5 1.5v12a1.5 1.5 0 001.5 1.5zm1.5-12h12v9h-12v-9zm-1.5 15h3v3h-3v-3zm6 0h3v3h-3v-3zm6 0h3v3h-3v-3z" fill="#2E2E2E"/></svg>