<svg width="96" height="96" fill="none" xmlns="http://www.w3.org/2000/svg"><path d="M89.6 55.2a4.005 4.005 0 00-4-4h-4v-6.4h-3.2v6.4h-3.2v-6.4H72v6.4h-3.2v-6.4h-3.2v6.4h-3.2v-6.4h-3.2v6.4h-4a4.005 4.005 0 00-4 4v4h-6.4v3.2h6.4v3.2h-6.4v3.2h6.4V72h-6.4v3.2h6.4v3.2h-6.4v3.2h6.4v4a4.005 4.005 0 004 4h4V96h3.2v-6.4h3.2V96h3.2v-6.4H72V96h3.2v-6.4h3.2V96h3.2v-6.4h4a4.005 4.005 0 004-4v-4H96v-3.2h-6.4v-3.2H96V72h-6.4v-3.2H96v-3.2h-6.4v-3.2H96v-3.2h-6.4v-4zm-3.2 30.4a.8.8 0 01-.8.8H55.2a.8.8 0 01-.8-.8V55.2a.8.8 0 01.8-.8h30.4a.8.8 0 01.8.8v30.4z" fill="#E96F6F"/><path d="M3.2 92.8h3.2V96H3.2v-3.2zm12-70.4a.8.8 0 01.8.8v5.6a3.203 3.203 0 00-3.2 3.2v3.2a3.203 3.203 0 003.2 3.2h3.2a3.203 3.203 0 003.2-3.2V32a3.203 3.203 0 00-3.2-3.2v-5.6a4.005 4.005 0 00-4-4 .8.8 0 01-.8-.8v-12h-3.2v12a4.005 4.005 0 004 4zm4 9.6v3.2H16V32h3.2zm-8-32h3.2v3.2h-3.2V0zm-8 0h3.2v3.2H3.2V0zm0 59.2v30.4h3.2V59.2A3.203 3.203 0 009.6 56v-3.2a3.203 3.203 0 00-3.2-3.2H3.2A3.203 3.203 0 000 52.8V56a3.203 3.203 0 003.2 3.2zm0-6.4h3.2V56H3.2v-3.2zm0-6.4h3.2a3.203 3.203 0 003.2-3.2V40a3.203 3.203 0 00-3.2-3.2V6.4H3.2v30.4A3.203 3.203 0 000 40v3.2a3.203 3.203 0 003.2 3.2zm0-6.4h3.2v3.2H3.2V40zm9.6 48.8a4.005 4.005 0 004 4h12A3.203 3.203 0 0032 96h3.2a3.203 3.203 0 003.2-3.2v-3.2a3.203 3.203 0 00-3.2-3.2H32a3.203 3.203 0 00-3.2 3.2h-12a.8.8 0 01-.8-.8V84a.8.8 0 01.8-.8H32V80H16.8a4.005 4.005 0 00-4 4v4.8zm19.2.8h3.2v3.2H32v-3.2zm3.2-9.6h3.2v3.2h-3.2V80zm-22.4-6.4a3.203 3.203 0 003.2 3.2h3.2a3.203 3.203 0 003.2-3.2h12a4.005 4.005 0 004-4v-4.8a4.005 4.005 0 00-4-4H19.2V64h15.2a.8.8 0 01.8.8v4.8a.8.8 0 01-.8.8h-12a3.203 3.203 0 00-3.2-3.2H16a3.203 3.203 0 00-3.2 3.2v3.2zm3.2-3.2h3.2v3.2H16v-3.2zm-3.2-9.6H16V64h-3.2v-3.2zm1.6-15.2v4.8a4.005 4.005 0 004 4h10.4a3.203 3.203 0 003.2 3.2h3.2a3.203 3.203 0 003.2-3.2v-3.2a3.203 3.203 0 00-3.2-3.2H32a3.203 3.203 0 00-3.2 3.2H18.4a.8.8 0 01-.8-.8v-4.8a.8.8 0 01.8-.8H32v-3.2H18.4a4.005 4.005 0 00-4 4zm20.8 5.6v3.2H32l-.002-3.2H35.2zm0-9.6h3.2v3.2h-3.2v-3.2zm-9.6-6.4h3.2v3.2h-3.2v-3.2zm-4-19.2h3.2a.8.8 0 01.8.8V32h3.2V16.8a4.005 4.005 0 00-4-4h-3.2a.8.8 0 01-.8-.8V7.2a.8.8 0 01.8-.8h5.6a3.203 3.203 0 003.2 3.2h3.2a3.203 3.203 0 003.2-3.2V3.2A3.203 3.203 0 0033.6 0h-3.2a3.203 3.203 0 00-3.2 3.2h-5.6a4.005 4.005 0 00-4 4V12a4.005 4.005 0 004 4zm8.8-12.8h3.2l.002 3.2H30.4V3.2zM48 24.8a.8.8 0 01.8-.8 4.005 4.005 0 004-4V9.6A3.203 3.203 0 0056 6.4V3.2A3.203 3.203 0 0052.8 0h-3.2a3.203 3.203 0 00-3.2 3.2v3.2a3.203 3.203 0 003.2 3.2V20a.8.8 0 01-.8.8 4.005 4.005 0 00-4 4V32H48v-7.2zm1.6-21.6h3.2v3.2h-3.2V3.2zm-4.8 32H48v3.2h-3.2v-3.2zm-9.6-18.4v12A3.203 3.203 0 0032 32v3.2a3.203 3.203 0 003.2 3.2h3.2a3.203 3.203 0 003.2-3.2V32a3.203 3.203 0 00-3.2-3.2v-12a.8.8 0 01.8-.8 4.005 4.005 0 004-4V6.4H40V12a.8.8 0 01-.8.8 4.005 4.005 0 00-4 4zm3.2 18.4h-3.2V32h3.2v3.2zM40 0h3.2v3.2H40V0zm52.8 28.8V17.6h-3.2v11.2a3.203 3.203 0 00-3.2 3.2v3.2a3.203 3.203 0 003.2 3.2h3.2a3.203 3.203 0 003.2-3.2V32a3.203 3.203 0 00-3.2-3.2zm0 6.4h-3.2l-.002-3.2H92.8v3.2zm-3.2-24h3.2v3.2h-3.2v-3.2zm-9.6 20a.8.8 0 01-.8.8H60.8a3.203 3.203 0 00-3.2-3.2h-3.2a3.203 3.203 0 00-3.2 3.2v3.2a3.203 3.203 0 003.2 3.2h3.2a3.203 3.203 0 003.2-3.2h18.4a4.005 4.005 0 004-4V17.6H80v13.6zm-25.6 4V32h3.2l.002 3.2H54.4zm25.6-24h3.2v3.2H80v-3.2z" fill="#2E2E2E"/><path d="M56 21.6a4.005 4.005 0 004 4h7.2a3.203 3.203 0 003.2 3.2h3.2a3.203 3.203 0 003.2-3.2v-3.2a3.203 3.203 0 00-3.2-3.2h-3.2a3.203 3.203 0 00-3.2 3.2H60a.8.8 0 01-.8-.8v-4.8a.8.8 0 01.8-.8 4.005 4.005 0 004-4V6.4h-3.2V12a.8.8 0 01-.8.8 4.005 4.005 0 00-4 4v4.8zm17.6.8v3.2h-3.2l-.002-3.2H73.6zM60.8 0H64v3.2h-3.2V0zm32 0h-3.2a3.203 3.203 0 00-3.2 3.2h-12a4.005 4.005 0 00-4 4v2.4h3.2V7.2a.8.8 0 01.8-.8h12a3.203 3.203 0 003.2 3.2h3.2A3.203 3.203 0 0096 6.4V3.2A3.203 3.203 0 0092.8 0zm-3.2 6.4V3.2h3.2l.002 3.2H89.6z" fill="#2E2E2E"/><path d="M70.4 12.8h3.2V16h-3.2v-3.2z" fill="#2E2E2E"/></svg>