<svg width="96" height="96" fill="none" xmlns="http://www.w3.org/2000/svg"><path fill-rule="evenodd" clip-rule="evenodd" d="M71.705 15.656C58.26-1.86 33.158-5.162 15.641 8.284-1.877 21.73-5.177 46.831 8.269 64.349c12.691 16.535 35.957 20.546 53.453 9.215l4.827 4.827 2.261 2.262 12.876 12.875A8.385 8.385 0 1093.544 81.67L80.667 68.795l-2.261-2.262-4.827-4.827a39.853 39.853 0 000-43.401l-1.875-2.649zm19.66 75.61a5.187 5.187 0 00-.083-7.335L78.407 71.056l-7.335 7.335 12.875 12.875.083.084a5.187 5.187 0 007.335-.084zM68.81 76.13l7.335-7.334-4.427-4.427a10 10 0 01-.306.375c-.079.094-.157.187-.233.282a39.419 39.419 0 01-1.488 1.753c-.1.109-.2.215-.3.32l-.18.192a41.128 41.128 0 01-2.095 2.084l-.32.3a39.604 39.604 0 01-1.754 1.488 15.72 15.72 0 00-.281.232c-.124.105-.249.21-.378.308l4.427 4.427zm-.44-12.707a37.318 37.318 0 001.573-2.056 36.844 36.844 0 000-42.835C58.114 1.973 35.103-1.86 18.546 9.969 1.99 21.798-1.844 44.809 9.985 61.366c11.828 16.556 34.84 20.39 51.396 8.561a37.417 37.417 0 002.057-1.572c.194-.162.38-.336.571-.496.572-.49 1.124-.995 1.657-1.516a36.019 36.019 0 002.209-2.35c.165-.19.336-.377.496-.57z" fill="#2E2E2E"/><path d="M37.903 24.805C37.5 25.17 28 33.861 28 43.145 28 49.682 33.383 55 40 55s12-5.318 12-11.855c0-9.283-9.499-17.975-9.904-18.34a3.134 3.134 0 00-4.193 0zm7.886 18.34c-.796 10.902-21.201 5.76-5.79-11.65 2.537 2.884 5.79 7.528 5.79 11.65z" fill="#E96F6F"/></svg>