<svg width="96" height="96" fill="none" xmlns="http://www.w3.org/2000/svg"><g clip-path="url(#clip0)"><path d="M94.268 73.834c-.956 0-1.731.775-1.731 1.732 0 9.358-7.614 16.971-16.972 16.971a1.732 1.732 0 000 3.464C86.833 96 96 86.834 96 75.566c0-.957-.775-1.732-1.732-1.732z" fill="#E96F6F"/><path d="M75.565 89.766c7.83 0 14.2-6.37 14.2-14.2a1.732 1.732 0 10-3.463 0c0 5.92-4.817 10.737-10.737 10.737a1.732 1.732 0 000 3.463z" fill="#E96F6F"/><path d="M75.565 83.532c4.393 0 7.966-3.574 7.966-7.966a1.732 1.732 0 00-3.463 0 4.508 4.508 0 01-4.503 4.502 1.732 1.732 0 000 3.464z" fill="#E96F6F"/><path d="M74.567 77.016c.338.338.782.507 1.225.507a1.732 1.732 0 001.225-2.956l-.609-.608 9.062-9.062a1.731 1.731 0 000-2.449c-4.484-4.484-10.954-5.796-16.604-3.944l-2.749-2.75 4.357-4.356a1.732 1.732 0 000-2.45l-11.141-11.14 4.4-4.4 5.47 5.469c.337.338.78.507 1.224.507.443 0 .886-.169 1.224-.507l22.532-22.532a1.731 1.731 0 000-2.45L80.795.508a1.731 1.731 0 00-2.449 0L55.814 23.04a1.731 1.731 0 000 2.45l5.47 5.469-4.4 4.4-8.404-8.404c-3.335-3.335-8.527-3.703-12.276-1.112L32.28 21.92a1.732 1.732 0 00-2.449 0l-7.911 7.91a1.731 1.731 0 000 2.45l3.922 3.921a9.554 9.554 0 00-1.706 5.471 9.563 9.563 0 002.82 6.807l8.403 8.404-4.4 4.4-5.47-5.47a1.732 1.732 0 00-2.448 0L.507 78.346a1.732 1.732 0 000 2.45l13.389 13.387a1.727 1.727 0 002.449 0l22.532-22.532a1.732 1.732 0 000-2.449l-5.47-5.47 4.4-4.4L48.95 70.475a1.731 1.731 0 002.449 0l4.358-4.358 2.748 2.749c-1.852 5.65-.54 12.12 3.944 16.605.338.338.782.507 1.225.507.443 0 .886-.169 1.224-.507l9.062-9.062.608.608zm3.36-49.312l-10.94-10.94 5.085-5.084L83.01 22.62l-5.085 5.084zM79.57 4.18l10.94 10.94-5.05 5.05L74.52 9.23l5.05-5.05zM64.538 19.214l10.94 10.94-5.051 5.05-10.94-10.94 5.05-5.05zM16.765 66.987l10.94 10.939-5.086 5.085L11.68 72.07l5.085-5.084zM15.12 90.51L4.181 79.57l5.05-5.05 10.94 10.94-5.05 5.05zm15.033-15.033l-10.939-10.94 5.05-5.05 10.94 10.94-5.05 5.05zm17.333-44.62l14.693 14.694L45.552 62.18 30.858 47.485l16.628-16.627zm-5.812-3.255c1.128 0 2.256.309 3.247.923L28.524 44.922a6.12 6.12 0 01-.925-3.248c0-1.647.641-3.194 1.805-4.358l7.912-7.912a6.143 6.143 0 014.358-1.802zm-10.618-2.01l2.586 2.587-2.731 2.732-2.732 2.731-2.586-2.586 5.463-5.463zm19.117 41.209l-2.172-2.173 16.627-16.627 2.173 2.172-16.628 16.628zm8.032-3.134l5.463-5.463 1.842 1.842a16.266 16.266 0 00-3.062 2.402 16.255 16.255 0 00-2.4 3.061l-1.843-1.842zm5.55 18.047c-3.82-5.02-3.44-12.235 1.142-16.817a12.775 12.775 0 019.062-3.747c2.736 0 5.472.868 7.755 2.605L63.755 81.714z" fill="#2E2E2E"/></g><defs><clipPath id="clip0"><path fill="#fff" d="M0 0h96v96H0z"/></clipPath></defs></svg>