<svg width="96" height="96" fill="none" xmlns="http://www.w3.org/2000/svg"><path fill-rule="evenodd" clip-rule="evenodd" d="M35.423 49.16l-.61-.44-2.245-1.618-.302-17.99a4.654 4.654 0 00-4.061-4.521l-12.84-.037h-2.28a4.62 4.62 0 00-4.156 2.567c-.372.743-.745 1.502-1.107 2.254-3.184 6.623-4.798 11.12-4.798 13.369v13.509A2.416 2.416 0 002 58.22v4.506a2.412 2.412 0 002.41 2.409h9.03a1.125 1.125 0 001.124-1.125v-2.012a7.99 7.99 0 017.99-7.991h4.496a7.986 7.986 0 017.991 7.991v2.012a1.125 1.125 0 001.125 1.125h3.82v.844a3.38 3.38 0 003.375 3.375h14.373a3.379 3.379 0 003.375-3.375v-.844h3.837a1.125 1.125 0 001.125-1.125v-2.012a7.99 7.99 0 017.989-7.991h4.033a7.993 7.993 0 017.99 7.991v2.012a1.125 1.125 0 102.25 0v-2.012l-.003-.08-.002-.067 5.554-6.45c.176-.206.272-.468.272-.738v-4.378a1.125 1.125 0 00-1.125-1.125H35.423zM14.94 30.988H9.545c-2.118 4.462-3.527 8.035-4.047 10.23l9.441-2.524v-7.707zm-2.625 31.897v-.887c-.001-1.351.265-2.69.784-3.937H4.41a.2.2 0 00-.038.004.164.164 0 00-.121.155v4.506a.164.164 0 00.16.159h7.904zM27.05 51.757c2.546 0 5 .948 6.885 2.66V50.86l-2.846-2.052h-7.793c-1.593 0-2.464.076-3.955.413-5.215 1.191-6.973 4.698-7.552 6.589h2.605a10.224 10.224 0 018.16-4.054h4.496zm-16.294.89c1.178-1.99 3.536-4.58 8.083-5.62 1.744-.373 2.72-.453 4.457-.468h7.012l-.292-17.41a2.39 2.39 0 00-2.38-2.345h-14.55a2.383 2.383 0 00-2.144 1.325l-.23.462-.072.146h14.152a2.293 2.293 0 012.289 2.292v4.031a3.509 3.509 0 01-1.038 2.503c-.44.439-.986.754-1.585.916L5.274 43.607V55.81h4.19c.274-1.112.71-2.178 1.292-3.163zm6.433-21.66v7.107l6.685-1.788a1.299 1.299 0 00.859-.753c.065-.156.098-.324.097-.493v-4.031c0-.006 0-.01-.003-.016a.04.04 0 00-.037-.026h-7.6zm41.34 35.787c.211-.211.33-.497.33-.795v-6.087a1.126 1.126 0 00-1.125-1.125H43.361a1.126 1.126 0 00-1.125 1.125v6.087a1.126 1.126 0 001.125 1.125h14.373c.299 0 .585-.12.795-.33zm5.292-3.889v-.887a10.281 10.281 0 012.105-6.21H36.185v1.588a10.26 10.26 0 011.106 4.622v.887h2.695v-2.992a3.379 3.379 0 013.375-3.376h14.373a3.379 3.379 0 013.375 3.375v2.993h2.712zm22.414-7.097a10.19 10.19 0 011.63 3.153l2.714-3.153h-4.344zm-2.372-2.25h8.041V51.41H36.185v2.128h32.104a10.15 10.15 0 015.771-1.781h4.033c2.06-.006 4.072.616 5.77 1.781z" fill="#2E2E2E"/><path d="M36.807 24a2 2 0 00-2 2l.007 22.72.61.44h1.383V27a1 1 0 011-1h51a1 1 0 011 1v22.16h1.994c.004-.053.007-.106.007-.16V26a2 2 0 00-2-2h-53z" fill="#2E2E2E"/><path d="M25.044 55.688a8.51 8.51 0 108.509 8.51 8.52 8.52 0 00-8.51-8.51zm0 14.77a6.261 6.261 0 116.258-6.26 6.268 6.268 0 01-6.258 6.26z" fill="#E96F6F"/><path d="M25.044 61.328a2.871 2.871 0 100 5.742 2.871 2.871 0 000-5.742zm0 3.49a.62.62 0 110-1.24.62.62 0 010 1.24zm50.951-9.13a8.51 8.51 0 108.509 8.51 8.52 8.52 0 00-8.509-8.51zm0 14.77a6.261 6.261 0 116.259-6.26 6.268 6.268 0 01-6.259 6.26z" fill="#E96F6F"/><path d="M75.995 61.328a2.87 2.87 0 100 5.74 2.87 2.87 0 000-5.74zm0 3.49a.62.62 0 110-1.24.62.62 0 010 1.24z" fill="#E96F6F"/></svg>