<svg width="96" height="96" fill="none" xmlns="http://www.w3.org/2000/svg"><path fill-rule="evenodd" clip-rule="evenodd" d="M71.705 15.656C58.26-1.86 33.158-5.162 15.641 8.284-1.877 21.73-5.177 46.831 8.269 64.349c12.691 16.535 35.957 20.546 53.453 9.215l4.827 4.827 2.261 2.262 12.876 12.875A8.385 8.385 0 1093.544 81.67L80.667 68.795l-2.261-2.262-4.827-4.827a39.853 39.853 0 000-43.401l-1.875-2.649zm19.66 75.61a5.187 5.187 0 00-.083-7.335L78.407 71.056l-7.335 7.335 12.875 12.875.083.084a5.187 5.187 0 007.335-.084zM68.81 76.13l7.335-7.334-4.427-4.427a10 10 0 01-.306.375c-.079.094-.157.187-.233.282a39.419 39.419 0 01-1.488 1.753c-.1.109-.2.215-.3.32l-.18.192a41.128 41.128 0 01-2.095 2.084l-.32.3a39.604 39.604 0 01-1.754 1.488 15.72 15.72 0 00-.281.232c-.124.105-.249.21-.378.308l4.427 4.427zm-.44-12.707a37.318 37.318 0 001.573-2.056 36.844 36.844 0 000-42.835C58.114 1.973 35.103-1.86 18.546 9.969 1.99 21.798-1.844 44.809 9.985 61.366c11.828 16.556 34.84 20.39 51.396 8.561a37.417 37.417 0 002.057-1.572c.194-.162.38-.336.571-.496.572-.49 1.124-.995 1.657-1.516a36.019 36.019 0 002.209-2.35c.165-.19.336-.377.496-.57z" fill="#2E2E2E"/><path d="M60.446 42.233l-8.628 2.976-3.479-2v-6.372l3.48-2 8.627 2.977c.603.233 1.299-.14 1.484-.744.232-.605-.139-1.303-.742-1.489l-6.68-2.279 6.262-3.628c.557-.325.743-1.07.418-1.627a1.197 1.197 0 00-1.623-.42l-6.262 3.629 1.345-6.93c.139-.652-.279-1.256-.928-1.396-.65-.14-1.252.28-1.392.93l-1.762 8.977-3.48 2-2.643-1.535-.047-.046-2.69-1.582v-4l6.865-6c.51-.418.557-1.162.093-1.674-.418-.512-1.16-.558-1.67-.093l-5.288 4.651V17.21A1.2 1.2 0 0040.5 16a1.2 1.2 0 00-1.206 1.21v7.255l-5.288-4.605c-.51-.418-1.252-.372-1.67.093-.417.512-.371 1.256.093 1.675l6.865 6v4l-2.69 1.581-2.69 1.582-3.48-2-1.762-8.977c-.14-.651-.742-1.07-1.392-.93-.65.14-1.067.744-.928 1.395l1.346 6.93-6.262-3.628a1.197 1.197 0 00-1.624.419c-.325.558-.14 1.302.418 1.628l6.261 3.628-6.679 2.279c-.603.232-.974.884-.742 1.488.232.605.881.977 1.484.744l8.628-2.976 3.479 2v6.372h.046l-3.479 2-8.628-2.977c-.603-.233-1.298.14-1.484.744-.232.605.14 1.303.742 1.489l6.68 2.279-6.262 3.628c-.557.325-.742 1.07-.418 1.627a1.197 1.197 0 001.624.42l6.262-3.629-1.345 6.93c-.14.652.278 1.256.927 1.396.65.14 1.253-.28 1.392-.93l1.763-8.977 3.479-2 2.736 1.581 2.69 1.582v4l-6.864 6c-.51.418-.557 1.162-.093 1.674.417.512 1.16.558 1.67.093l5.288-4.651v7.349A1.2 1.2 0 0040.593 64a1.2 1.2 0 001.206-1.21v-7.255l5.288 4.651c.51.419 1.252.372 1.67-.093.417-.512.37-1.256-.093-1.674l-6.958-6.047v-4l2.69-1.581 2.69-1.582 3.48 2 1.762 8.977c.14.651.742 1.07 1.392.93.65-.14 1.067-.744.928-1.395l-1.346-6.93 6.263 3.628c.556.325 1.298.14 1.623-.419.325-.558.14-1.302-.418-1.628l-6.262-3.628 6.68-2.279c.603-.232.974-.884.742-1.488-.232-.605-.881-.977-1.484-.744zM45.834 40v3.163l-2.69 1.581L40.5 46.28l-2.737-1.581-2.69-1.582v-6.279l2.69-1.581 2.69-1.582 2.691 1.582.046.046 2.644 1.535V40z" fill="#E96F6F"/></svg>