<svg width="96" height="96" fill="none" xmlns="http://www.w3.org/2000/svg"><path d="M86.933 6.621H9.067A9.066 9.066 0 000 15.688v64.626a9.065 9.065 0 009.067 9.066h77.868A9.065 9.065 0 0096 80.313V15.688a9.066 9.066 0 00-9.067-9.067zm5.757 74.01a5.439 5.439 0 01-5.44 5.438H8.75a5.439 5.439 0 01-5.44-5.439V15.37a5.438 5.438 0 015.44-5.439h78.5a5.439 5.439 0 015.44 5.44v65.26z" fill="#2E2E2E"/><path d="M77.569 19.863H17.81a1.57 1.57 0 00-1.569 1.569v20.034c0 .865.704 1.569 1.57 1.569h59.758a1.57 1.57 0 001.569-1.57V21.433a1.57 1.57 0 00-1.57-1.57zm-1.742 19.861H19.553v-16.55h56.276v16.552zm-11.586 6.621H31.138c-.915 0-1.655.74-1.655 1.655 0 .916.74 1.656 1.655 1.656h33.103c.916 0 1.656-.74 1.656-1.656 0-.915-.74-1.655-1.656-1.655zm0 13.242H31.138c-4.636 0-8.408 3.64-8.408 8.275 0 4.637 3.772 8.276 8.408 8.276H64.24c4.636 0 8.409-3.64 8.409-8.276 0-4.636-3.773-8.275-8.409-8.275zm0 13.241H31.138c-2.665 0-4.833-2.3-4.833-4.966 0-2.664 2.168-4.965 4.833-4.965H64.24c2.665 0 4.833 2.3 4.833 4.965s-2.168 4.966-4.833 4.966z" fill="#2E2E2E"/><path d="M30.168 31.448l2.14-2.14a1.653 1.653 0 000-2.34 1.653 1.653 0 00-2.34 0l-2.14 2.14-2.14-2.14a1.653 1.653 0 00-2.341 0 1.653 1.653 0 000 2.34l2.14 2.14-2.14 2.14a1.653 1.653 0 001.17 2.826 1.65 1.65 0 001.17-.485l2.14-2.14 2.14 2.14a1.65 1.65 0 002.341 0 1.653 1.653 0 000-2.34l-2.14-2.14zm13.242 0l2.14-2.14a1.653 1.653 0 000-2.34 1.653 1.653 0 00-2.34 0l-2.141 2.14-2.14-2.14a1.653 1.653 0 00-2.34 0 1.653 1.653 0 000 2.34l2.14 2.14-2.14 2.14a1.653 1.653 0 001.17 2.826 1.65 1.65 0 001.17-.485l2.14-2.14 2.14 2.14a1.65 1.65 0 002.34 0 1.653 1.653 0 000-2.34l-2.14-2.14zm13.24 0l2.14-2.14a1.653 1.653 0 000-2.34 1.653 1.653 0 00-2.34 0l-2.14 2.14-2.14-2.14a1.653 1.653 0 00-2.34 0 1.653 1.653 0 000 2.34l2.14 2.14-2.14 2.14A1.653 1.653 0 0051 36.415a1.65 1.65 0 001.17-.485l2.14-2.14 2.14 2.14a1.65 1.65 0 002.34 0 1.653 1.653 0 000-2.34l-2.14-2.14zm13.242 0l2.14-2.14a1.653 1.653 0 000-2.34 1.653 1.653 0 00-2.34 0l-2.14 2.14-2.14-2.14a1.653 1.653 0 00-2.34 0 1.653 1.653 0 000 2.34l2.14 2.14-2.14 2.14a1.653 1.653 0 001.17 2.826 1.65 1.65 0 001.17-.485l2.14-2.14 2.14 2.14a1.65 1.65 0 002.34 0 1.653 1.653 0 000-2.34l-2.14-2.14z" fill="#E96F6F"/></svg>