<svg width="96" height="96" fill="none" xmlns="http://www.w3.org/2000/svg"><g clip-path="url(#clip0_242:1729)"><path d="M1.434 64.025h4.928c.878 6.115 6.548 10.361 12.663 9.483a11.188 11.188 0 009.482-9.483h38.66c.868 6.117 6.53 10.37 12.647 9.502a11.186 11.186 0 009.593-10.405l5.968-5.966c.298-.301.466-.708.465-1.132v-14.4c0-.364-.124-.717-.35-1l-5.761-7.201 2.75-5.485a1.6 1.6 0 00-1.263-2.306l-24.364-2.57a65.382 65.382 0 00-30.3 3.817 59.191 59.191 0 00-15.362 9.264l-3.06 2.55-2.182 1.19-10.09 3.92a1.537 1.537 0 00-.188.088 11.201 11.201 0 00-5.837 9.832v8.702a1.6 1.6 0 001.6 1.6zm16 6.4a8 8 0 118.001-8 8.01 8.01 0 01-8 8zm60.805 0a8.001 8.001 0 118-8 8.01 8.01 0 01-8 8zm14.4-22.401h-5.15l-.8-3.2h5.95v3.2zM83.159 28l5.417.571-2.168 4.336a1.6 1.6 0 00.183 1.716l5.6 7h-7.55a1.6 1.6 0 00-1.553 1.988l1.6 6.4a1.6 1.6 0 001.552 1.213h6.4v4.137l-3.712 3.712c0-.017-.014-.032-.019-.049a11.106 11.106 0 00-.571-1.413c-.048-.098-.093-.2-.144-.299-.23-.446-.49-.876-.777-1.288-.058-.083-.122-.16-.181-.241a10.7 10.7 0 00-.905-1.077c-.043-.047-.083-.098-.13-.143a11.414 11.414 0 00-1.14-1c-.093-.07-.184-.14-.277-.206-.411-.3-.842-.573-1.29-.815-.059-.032-.123-.057-.184-.088a11.094 11.094 0 00-1.315-.564c-.09-.033-.176-.07-.266-.1-.494-.16-1-.286-1.512-.377-.109-.02-.219-.034-.32-.05a11.062 11.062 0 00-1.657-.14c-.37 0-.737.022-1.097.057-.12.01-.237.034-.355.05-.24.03-.48.062-.712.109-.14.027-.273.063-.412.095-.207.05-.416.1-.62.16-.143.042-.28.092-.42.14-.193.067-.387.134-.576.21-.137.057-.273.118-.41.18-.181.082-.36.16-.538.26a12.062 12.062 0 00-1.272.77 18.75 18.75 0 00-.821.63c-.16.133-.306.275-.455.416-.102.094-.204.186-.302.286-.16.16-.297.32-.443.48l-.245.28c-.17.208-.328.424-.48.64-.044.064-.093.122-.136.185a11.02 11.02 0 00-.537.883c-.047.085-.086.177-.13.265a8.69 8.69 0 00-.32.672c-.052.122-.095.246-.145.371-.078.202-.16.403-.224.612-.045.137-.081.28-.12.42-.055.2-.11.399-.16.602-.034.15-.059.3-.086.454-.022.122-.053.24-.07.364H49.885l.8-3.2h11.552v-3.19h-10.75l3.347-13.391 20.284-1.01a1.601 1.601 0 001.292-.774L83.158 28zm-24.546-2.08c.374 0 .747-.024 1.12-.024 2.266-.002 4.53.114 6.784.35l13.133 1.386-5.543 9.236-18.46.915 2.966-11.863zM23.238 38.602a55.96 55.96 0 0114.53-8.762 56.725 56.725 0 0117.511-3.783l-2.973 11.898-30.082 1.5 1.014-.853zM3.033 53.723a7.991 7.991 0 014.084-6.98l9.838-3.822L51.487 41.2l-3.3 13.224H30.235v3.2h17.152l-.8 3.2H28.52c-.017-.122-.047-.24-.07-.362a8.69 8.69 0 00-.086-.455 8.13 8.13 0 00-.16-.601c-.038-.141-.075-.283-.12-.421-.067-.208-.146-.41-.224-.612-.05-.124-.093-.25-.144-.37-.1-.23-.211-.452-.32-.673-.045-.088-.083-.179-.131-.265a10.71 10.71 0 00-.536-.882c-.043-.064-.093-.122-.136-.185-.16-.22-.32-.436-.48-.64a8.042 8.042 0 00-.245-.28c-.146-.16-.29-.332-.444-.481-.097-.099-.2-.192-.302-.286-.149-.141-.297-.282-.454-.415-.11-.094-.226-.182-.341-.272-.16-.123-.32-.243-.48-.358-.122-.085-.245-.16-.371-.247a12.242 12.242 0 00-.901-.525 11.156 11.156 0 00-.54-.258 10.345 10.345 0 00-.409-.18c-.189-.076-.383-.143-.576-.211-.14-.048-.277-.098-.42-.139-.204-.061-.412-.11-.62-.16-.138-.032-.272-.069-.411-.096a10.564 10.564 0 00-.713-.11c-.118-.015-.235-.038-.355-.049a8.669 8.669 0 00-1.097-.067c-.37 0-.737.021-1.097.056-.12.011-.237.034-.355.05-.24.03-.48.062-.712.109-.14.027-.273.064-.411.096-.208.05-.416.099-.62.16-.143.042-.281.091-.42.139-.194.067-.388.135-.576.211a9.858 9.858 0 00-.41.18c-.182.08-.361.16-.539.259a11.035 11.035 0 00-.901.524c-.126.08-.25.16-.371.247-.16.115-.32.235-.48.358-.115.09-.23.178-.341.272-.16.133-.306.274-.455.415-.046.041-.094.082-.137.125H3.033v-.702zm0 3.902h4.294c-.061.126-.123.249-.18.377-.055.128-.094.246-.143.371-.08.202-.16.403-.224.612-.045.137-.082.28-.12.42-.057.2-.11.399-.161.602-.033.15-.059.3-.086.454-.023.122-.053.24-.07.364h-3.31v-3.2z" fill="#2E2E2E"/><path d="M38.236 43.223h8v3.2h-8v-3.2zm25.602 0h9.6v3.2h-9.6v-3.2z" fill="#2E2E2E"/><path fill-rule="evenodd" clip-rule="evenodd" d="M92.19 41.623h-7.55a1.6 1.6 0 00-1.553 1.987l1.6 6.4a1.6 1.6 0 001.552 1.213h9.601v-9.6h-3.65zm-4.7 6.4h5.15v-3.2h-5.951l.8 3.2z" fill="#E96F6F"/></g><defs><clipPath id="clip0_242:1729"><path fill="#fff" d="M0 0h96v96H0z"/></clipPath></defs></svg>