<svg width="96" height="96" fill="none" xmlns="http://www.w3.org/2000/svg"><path d="M74.417 65.709c-2.348 0-4.25 1.643-4.25 3.67s1.902 3.67 4.25 3.67c2.347 0 4.25-1.643 4.25-3.67s-1.903-3.67-4.25-3.67zm0 4.893c-.783 0-1.417-.548-1.417-1.223 0-.676.634-1.224 1.417-1.224.782 0 1.416.548 1.416 1.224 0 .675-.634 1.223-1.416 1.223zm-32.584 2.447c1.565 0 2.834-1.096 2.834-2.447s-1.269-2.447-2.834-2.447c-1.564 0-2.833 1.096-2.833 2.447s1.269 2.447 2.833 2.447zm-17 0c1.565 0 2.834-1.096 2.834-2.447s-1.269-2.447-2.834-2.447c-1.564 0-2.833 1.096-2.833 2.447s1.269 2.447 2.833 2.447z" fill="#2E2E2E"/><path d="M89.956 49.619a.982.982 0 000-.129l-5.209-16.87c.743-.186 1.17-.858.952-1.5a.9.9 0 00-.018-.05l-1.417-3.67c-.193-.5-.736-.838-1.347-.837H64.5v-7.34c0-.675-.634-1.223-1.417-1.223H9.25c-.782 0-1.417.548-1.417 1.223V58.37H6.417c-.783 0-1.417.548-1.417 1.223v4.894c0 .675.634 1.223 1.417 1.223h4.25v3.67c0 .675.634 1.223 1.416 1.223h4.25c-.018 4.07 3.788 7.382 8.5 7.398 4.58.015 8.331-3.088 8.557-6.997a6.44 6.44 0 00.485 2.086c1.578 3.806 6.43 5.788 10.838 4.425 3.379-1.044 5.63-3.813 5.62-6.912h14.28c.778 4.675 5.797 7.92 11.212 7.25 4.351-.54 7.77-3.493 8.395-7.25h4.363c.783 0 1.417-.548 1.417-1.223V49.806a.937.937 0 00-.044-.187zm-3.214-1.036h-10.15l-2.175-2.814v-13.09h7.41l4.915 15.904zm-76.075 14.68H7.833v-2.447h2.834v2.446zm0-4.894V20.447h51v37.922h-51zm14.166 17.126c-3.13 0-5.666-2.19-5.666-4.893 0-2.702 2.537-4.893 5.666-4.893 3.13 0 5.667 2.19 5.667 4.893 0 2.702-2.537 4.893-5.667 4.893zm17 0c-3.13 0-5.666-2.19-5.666-4.893 0-2.702 2.537-4.893 5.666-4.893 3.13 0 5.667 2.19 5.667 4.893 0 2.702-2.537 4.893-5.667 4.893zm32.584 0c-3.912 0-7.084-2.738-7.084-6.116 0-3.378 3.172-6.117 7.084-6.117 3.912 0 7.083 2.739 7.083 6.117-.005 3.376-3.173 6.112-7.083 6.116zm12.75-17.126h-4.25v-3.67h4.25v3.67zm0-6.117H81.5c-.782 0-1.417.548-1.417 1.224v6.116c0 .676.635 1.224 1.417 1.224h5.667v7.34H84.22c-.778-4.676-5.797-7.922-11.211-7.25-4.352.54-7.77 3.492-8.396 7.25H49.837C48.26 64.348 43.407 62.367 39 63.73c-3.317 1.026-5.437 3.653-5.61 6.513-.233-3.877-3.937-6.966-8.488-6.981-3.62-.013-6.856 1.949-8.072 4.893H13.5v-7.34h49.583c.783 0 1.417-.547 1.417-1.223V29.01h17.395l.472 1.223H73c-.782 0-1.417.548-1.417 1.223v14.68c0 .242.084.478.238.679l2.834 3.67c.263.34.705.544 1.178.544h11.334v1.223z" fill="#2E2E2E"/><path d="M43.591 41.74l-7.397-3.697-1.172-4.693a1.391 1.391 0 10-2.699.675l1.328 5.312c.098.394.363.726.727.908l7.968 3.983a1.392 1.392 0 101.245-2.489z" fill="#E96F6F"/><path d="M35 23c-8.837 0-16 7.163-16 16 .01 8.832 7.168 15.99 16 16 8.837 0 16-7.163 16-16s-7.163-16-16-16zm1.391 29.142v-1.19a1.391 1.391 0 00-2.782 0v1.19a13.24 13.24 0 01-11.751-11.75h1.19a1.391 1.391 0 000-2.783h-1.19a13.24 13.24 0 0111.75-11.751v1.19a1.391 1.391 0 002.783 0v-1.19a13.24 13.24 0 0111.751 11.75h-1.19a1.391 1.391 0 000 2.783h1.19a13.24 13.24 0 01-11.75 11.751z" fill="#E96F6F"/></svg>