<svg width="96" height="96" fill="none" xmlns="http://www.w3.org/2000/svg"><path fill-rule="evenodd" clip-rule="evenodd" d="M54.908 70.5H51.52L46.5 54.45v-5.325a5.622 5.622 0 012.385-4.594l-1.587-2.38L45.9 43.2a1.5 1.5 0 11-1.8-2.4l4.5-3.375a1.5 1.5 0 111.8 2.4l-.698.524 2.107 3.16a5.7 5.7 0 01.316-.009h2.859l3.516 3v24h-3v-6h-3.735l3.143 6zM49.5 60c0 .053-.003.107-.009.16l.703 1.34H55.5v-3h-6V60zm0-7.5h6v3h-6v-3zm6-6h-3.375a2.627 2.627 0 00-2.625 2.625v.375h6v-3z" fill="#E96F6F"/><path d="M21.728 78.044a9.773 9.773 0 10-9.772-9.772 9.783 9.783 0 009.772 9.772zm0-16.544a6.773 6.773 0 11-6.772 6.772 6.78 6.78 0 016.772-6.772zm51.945 18a6.174 6.174 0 10-6.173-6.173 6.18 6.18 0 006.173 6.173zm0-9.347a3.174 3.174 0 110 6.35 3.174 3.174 0 010-6.35zM75 55.5a1.5 1.5 0 001.5-1.5v-3a1.5 1.5 0 10-3 0v3a1.5 1.5 0 001.5 1.5zm4.5 0A1.5 1.5 0 0081 54v-3a1.5 1.5 0 10-3 0v3a1.5 1.5 0 001.5 1.5z" fill="#2E2E2E"/><path fill-rule="evenodd" clip-rule="evenodd" d="M87 64.5h1.5a4.5 4.5 0 110 9h-1.158a13.67 13.67 0 01-27.338 0H39.713a18.728 18.728 0 11-23.857-23.012l-1.09-1.634-1.705 1.707A1.499 1.499 0 0112 51H4.5a1.5 1.5 0 01-1.152-2.46l7.273-8.728 5.497-23.363A1.5 1.5 0 0115 15v-3.375A4.13 4.13 0 0119.125 7.5h27.75A4.13 4.13 0 0151 11.625V15a1.5 1.5 0 01-1.009 1.416L58.116 43.5H61.5v-6A1.5 1.5 0 0163 36h1.5v-7.5a1.499 1.499 0 01.668-1.248l4.5-3a1.5 1.5 0 011.664 2.496L67.5 29.303V36H69a1.5 1.5 0 011.5 1.5v6h7.766A8.744 8.744 0 0187 52.234V64.5zm-4.681-16.319a5.74 5.74 0 00-4.053-1.681H70.5v13.53A13.633 13.633 0 0184 64.38V52.234a5.74 5.74 0 00-1.681-4.053zM67.5 39h-3v24.196a13.733 13.733 0 013-2.064V39zM19.188 16.5L13.894 39H22.5V16.5h-3.312zm9.312 0h-3V39h3V16.5zm-10.17-5.67c-.211.21-.33.497-.33.795V13.5h30v-1.875a1.126 1.126 0 00-1.125-1.125h-27.75c-.298 0-.584.119-.795.33zM9.975 68.02l-3.806 2.538a15.67 15.67 0 003.598 7.91l.53-2.651a1.499 1.499 0 012.947-.001c.038.195.036.395-.005.589l-.896 4.48a15.64 15.64 0 008.142 3.062l-1.505-2.258a1.503 1.503 0 01-.009-1.676 1.502 1.502 0 012.093-.408 1.5 1.5 0 01.412.42l2.538 3.807a15.668 15.668 0 007.91-3.6l-2.652-.53a1.5 1.5 0 01.588-2.942l4.482.896a15.64 15.64 0 003.06-8.142l-2.257 1.506a1.502 1.502 0 01-2.31-.955 1.5 1.5 0 01.646-1.541l3.807-2.539a15.667 15.667 0 00-3.6-7.91l-.53 2.653a1.502 1.502 0 01-1.766 1.176 1.499 1.499 0 01-1.176-1.765l.896-4.48a15.643 15.643 0 00-8.142-3.062l1.506 2.258a1.5 1.5 0 01-2.496 1.664l-2.539-3.807a15.664 15.664 0 00-7.91 3.6l2.653.53a1.5 1.5 0 11-.589 2.942l-4.48-.897a15.643 15.643 0 00-3.062 8.142l2.258-1.505a1.5 1.5 0 111.664 2.496zm8.994-18.272a18.723 18.723 0 0120.633 12.931 18.727 18.727 0 01.72 7.821h5.187L33.597 48H17.803l1.166 1.748zm16.857-3.95L48.903 70.5h2.618L36.592 42h-23.89l-5 6h3.677l2.56-2.56A1.498 1.498 0 0115 45h19.5a1.5 1.5 0 011.326.798zM61.5 46.5h-3v24h1.795c.25-1.178.655-2.317 1.205-3.388V46.5zm3.69 27.718l-1.95 1.356a10.632 10.632 0 002.028 4.319l.084-.467a1.5 1.5 0 012.952.53l-.418 2.332a10.595 10.595 0 004.49 1.63l-.274-.394a1.501 1.501 0 012.462-1.713l1.356 1.95a10.631 10.631 0 004.32-2.028l-.468-.084a1.5 1.5 0 01.53-2.952l2.332.418a10.6 10.6 0 001.632-4.49l-.395.275a1.501 1.501 0 01-1.713-2.463l1.95-1.356a10.632 10.632 0 00-2.028-4.32l-.084.468a1.501 1.501 0 01-2.944.056 1.5 1.5 0 01-.009-.586l.419-2.332a10.601 10.601 0 00-4.49-1.631l.274.394a1.5 1.5 0 01-2.463 1.714l-1.356-1.95a10.632 10.632 0 00-4.319 2.027l.468.084a1.5 1.5 0 01-.53 2.953l-2.333-.419a10.597 10.597 0 00-1.63 4.49l.394-.274a1.5 1.5 0 011.713 2.463zM87.051 70.5H88.5a1.5 1.5 0 100-3h-2.46c.453.957.792 1.964 1.011 3zm-32.143 0h.592v-24l-.516-3-8.1-27H31.5V39h6a1.5 1.5 0 011.329.805L46.5 54.45l8.408 16.05z" fill="#2E2E2E"/></svg>