<svg width="96" height="96" fill="none" xmlns="http://www.w3.org/2000/svg"><path d="M12 9.75c0-1.24-1.01-2.25-2.25-2.25S7.5 8.51 7.5 9.75 8.51 12 9.75 12 12 10.99 12 9.75zm-2.25.75a.751.751 0 010-1.5.751.751 0 010 1.5zm31.5 18c1.24 0 2.25-1.01 2.25-2.25S42.49 24 41.25 24 39 25.01 39 26.25s1.01 2.25 2.25 2.25zm0-3a.751.751 0 010 1.5.751.751 0 010-1.5z" fill="#E96F6F"/><path fill-rule="evenodd" clip-rule="evenodd" d="M49.397 28.5a11.132 11.132 0 00-1.325-3.95l2.49-2.49c.373-.371.522-.912.395-1.423l-1.5-6a1.504 1.504 0 00-.785-.978l-6-3c-.085-.043-.177-.046-.267-.072l.009-.028L13.161 2.2a5.592 5.592 0 00-8.019 3.126 41.022 41.022 0 00-.988 22.492L8.796 47.32C7.996 48.339 7.5 49.606 7.5 51v3.75L2.1 58.8c-.378.284-.6.729-.6 1.2v7.5c0 .326.105.64.3.9l4.5 6a1.5 1.5 0 002.7-.9v-6.879l2.121-2.121h4.758L18 66.621V73.5a1.497 1.497 0 001.5 1.5c.463 0 .91-.216 1.2-.6l4.5-6c.195-.26.3-.575.3-.9V60c0-.471-.222-.916-.6-1.2l-5.4-4.05V51c0-1.483-.561-2.825-1.455-3.871l1.3-26.024L35.24 34.554H39L41.844 33A13.395 13.395 0 0148 31.5l1.397-3zM17.259 10.306l2.05 6.836 18.049 15.271a16.422 16.422 0 019.009-3.829 8.152 8.152 0 00-4.403-5.925L17.259 10.307zm16.869 5.081l.53-1.058A1.5 1.5 0 0136 13.5h3.573l.276-.553-23.842-6.812.067.225 18.054 9.027zm13.712 5.152l-1.127-4.507-4.041-2.019-.83 1.658a1.5 1.5 0 01-1.342.829h-3.573l-.114.228 6.492 3.246a11.271 11.271 0 012.944 2.155l1.59-1.59zM10.452 4.5a2.594 2.594 0 00-2.463 1.776 38.031 38.031 0 00-.918 20.849l4.35 18.268A5.953 5.953 0 0113.5 45c.572 0 1.113.105 1.635.255l1.354-27.072-3.55-11.834A2.581 2.581 0 0010.452 4.5zM10.5 54h6v-3c0-1.654-1.345-3-3-3s-3 1.346-3 3v3zM21 69l1.5-2v-6.25L17.499 57h-8L4.5 60.75V67L6 69v-3c0-.399.157-.78.44-1.06l3-3c.28-.282.662-.44 1.06-.44h6c.398 0 .78.157 1.06.44l3 3c.283.28.44.661.44 1.06v3z" fill="#E96F6F"/><path fill-rule="evenodd" clip-rule="evenodd" d="M43.5 26.25c0 1.24-1.01 2.25-2.25 2.25S39 27.49 39 26.25 40.01 24 41.25 24s2.25 1.01 2.25 2.25zm-1.5 0a.751.751 0 00-1.5 0 .751.751 0 001.5 0zM9.75 7.5C10.99 7.5 12 8.51 12 9.75S10.99 12 9.75 12 7.5 10.99 7.5 9.75 8.51 7.5 9.75 7.5zM9 9.75a.751.751 0 001.5 0 .751.751 0 00-1.5 0z" fill="#E96F6F"/><path d="M77.583 85.5H82.5v-3h-4.917A2.99 2.99 0 0075 81a2.99 2.99 0 00-2.583 1.5h-6.835A2.988 2.988 0 0063 81a2.993 2.993 0 00-2.584 1.5H53.58a2.99 2.99 0 00-2.583-1.5 2.99 2.99 0 00-2.583 1.5h-6.836a2.99 2.99 0 00-2.583-1.5 2.99 2.99 0 00-2.582 1.5H31.5v3h4.917A2.99 2.99 0 0039 87a2.99 2.99 0 002.583-1.5h6.836c.52.892 1.476 1.5 2.581 1.5a2.993 2.993 0 002.584-1.5h6.836a2.99 2.99 0 002.583 1.5 2.99 2.99 0 002.583-1.5h6.835a2.99 2.99 0 002.583 1.5 2.983 2.983 0 002.579-1.5zM52.5 57H60v3h-7.5v-3zM69 57h3v9h-3v-9zm4.5 0h3v9h-3v-9zm4.5 0h3v9h-3v-9z" fill="#2E2E2E"/><path fill-rule="evenodd" clip-rule="evenodd" d="M85.5 52.5V48a1.5 1.5 0 00-1.5-1.5h-3V45h3a1.5 1.5 0 001.5-1.5V39a1.5 1.5 0 00-1.5-1.5h-3c-4.135 0-7.5 3.364-7.5 7.5v1.5H72a1.5 1.5 0 00-1.5 1.5v4.5h-3V33c0-2.481-2.019-4.5-4.5-4.5H49.397l-3.03.084a16.422 16.422 0 00-9.01 3.83l-2.117 2.14A16.425 16.425 0 0031.5 45v16.776c-1.741.621-3 2.271-3 4.224 0 2.481 2.019 4.5 4.5 4.5h6v3h-7.5C25.71 73.5 21 78.212 21 84s4.71 10.5 10.5 10.5h51C88.29 94.5 93 89.788 93 84s-4.71-10.5-10.5-10.5H75v-3h15c2.481 0 4.5-2.019 4.5-4.5v-4.5c0-4.964-4.037-9-9-9zm-4.5-12a4.505 4.505 0 00-4.5 4.5v1.5H78V45c0-1.654 1.346-3 3-3h1.5v-1.5H81zm1.5 9h-9v3h9v-3zm-42 12h24V33c0-.828-.673-1.5-1.5-1.5H48a13.39 13.39 0 00-6.156 1.5H57c2.481 0 4.5 2.019 4.5 4.5v12c0 2.481-2.019 4.5-4.5 4.5H43.5c-1.654 0-3 1.346-3 3v4.5zM37.967 36c-2.148 2.391-3.467 5.541-3.467 9v16.5h3V57c0-3.309 2.691-6 6-6H57c.827 0 1.5-.672 1.5-1.5v-12c0-.828-.673-1.5-1.5-1.5H37.967zM33 64.5a1.501 1.501 0 000 3h31.5v-3H33zm55.287 21a6 6 0 01-.638 1.528l1.102 1.101a7.442 7.442 0 001.097-2.629h-1.561zm-.638-4.528c.281.472.497.984.638 1.528h1.561a7.442 7.442 0 00-1.097-2.63l-1.102 1.102zM85.5 84c0 1.654-1.346 3-3 3h-51c-1.654 0-3-1.346-3-3s1.346-3 3-3h51c1.654 0 3 1.346 3 3zm-48 7.5V90h-3v1.5h3zm6-1.5h-3v1.5h3V90zm6 0h-3v1.5h3V90zm6 0h-3v1.5h3V90zm6 0h-3v1.5h3V90zm6 0h-3v1.5h3V90zm6 0h-3v1.5h3V90zm6 0h-3v1.5h3V90zm-53.787-7.5a6 6 0 01.637-1.528l-1.1-1.101a7.442 7.442 0 00-1.1 2.629h1.562zm.637 4.528a5.872 5.872 0 01-.637-1.528h-1.562a7.442 7.442 0 001.099 2.63l1.1-1.102zM34.5 76.5V78h3v-1.5h-3zm42 0V78h3v-1.5h-3zm-6 1.5h3v-1.5h-3V78zm-6 0h3v-1.5h-3V78zm-6 0h3v-1.5h-3V78zm-6 0h3v-1.5h-3V78zm-6 0h3v-1.5h-3V78zm-6 0h3v-1.5h-3V78zm-12.029.85A5.92 5.92 0 0131.5 78v-1.5a7.453 7.453 0 00-4.13 1.25l1.101 1.1zm0 10.3l-1.1 1.1A7.453 7.453 0 0031.5 91.5V90a5.92 5.92 0 01-3.029-.85zm57.057 0A5.92 5.92 0 0182.5 90v1.5a7.453 7.453 0 004.13-1.25l-1.102-1.1zm0-10.3l1.101-1.1A7.453 7.453 0 0082.5 76.5V78a5.92 5.92 0 013.028.85zM42 73.5h30v-3H42v3zm48-6c.826 0 1.5-.672 1.5-1.5v-4.5c0-3.309-2.691-6-6-6h-18v12H90z" fill="#2E2E2E"/><path fill-rule="evenodd" clip-rule="evenodd" d="M75 81a2.99 2.99 0 00-2.583 1.5h-6.835A2.988 2.988 0 0063 81a2.993 2.993 0 00-2.584 1.5H53.58a2.99 2.99 0 00-2.583-1.5 2.99 2.99 0 00-2.583 1.5h-6.836a2.99 2.99 0 00-2.583-1.5 2.99 2.99 0 00-2.582 1.5H31.5v3h4.917A2.99 2.99 0 0039 87a2.99 2.99 0 002.583-1.5h6.836c.52.892 1.476 1.5 2.581 1.5a2.993 2.993 0 002.584-1.5h6.836a2.99 2.99 0 002.583 1.5 2.99 2.99 0 002.583-1.5h6.835a2.99 2.99 0 002.583 1.5 2.983 2.983 0 002.579-1.5H82.5v-3h-4.917A2.99 2.99 0 0075 81zM60 57h-7.5v3H60v-3zm12 0h-3v9h3v-9zm4.5 0h-3v9h3v-9zm4.5 0h-3v9h3v-9z" fill="#2E2E2E"/></svg>