<svg width="96" height="96" fill="none" xmlns="http://www.w3.org/2000/svg"><g clip-path="url(#clip0_242:1726)"><path d="M94.4 87.2H83.2v-4.8a3.203 3.203 0 003.2-3.2V24.8h4.8a1.6 1.6 0 001.569-1.287l3.2-16A1.6 1.6 0 0094.4 5.6H83.2c-7.949.009-14.39 6.45-14.4 14.4v8h-16v-3.2c-.007-6.183-5.017-11.193-11.2-11.2H40a1.6 1.6 0 00-1.6-1.6H19.2a1.6 1.6 0 00-1.6 1.6h-16A1.6 1.6 0 000 15.2v6.4a1.6 1.6 0 001.6 1.6h4.8V28H3.2A3.203 3.203 0 000 31.2v48a3.203 3.203 0 003.2 3.2v4.8H1.6a1.6 1.6 0 100 3.2h92.8a1.6 1.6 0 000-3.2zm-8-78.4h6.048l-2.56 12.8H86.4V8.8zM72 20c.007-6.183 5.017-11.194 11.2-11.2v12.8H72V20zm0 4.8h11.2V28H72v-3.2zm-32-8h1.6a8.01 8.01 0 018 8V28H40V16.8zm-19.2-1.6h16v6.4h-16v-6.4zm-1.6 9.6h17.6V28H9.6v-4.8h8a1.6 1.6 0 001.6 1.6zM3.2 20v-3.2h14.4V20H3.2zm0 11.2h80l.003 48H3.2v-48zm76.8 56H6.4v-4.8H80v4.8z" fill="#2E2E2E"/><path d="M43.2 37.6H14.4a3.203 3.203 0 00-3.2 3.2H9.6A3.203 3.203 0 006.4 44v3.2a3.203 3.203 0 003.2 3.2h1.6V60H9.6a3.203 3.203 0 00-3.2 3.2v3.2a3.203 3.203 0 003.2 3.2h1.6a3.203 3.203 0 003.2 3.2h28.8a3.203 3.203 0 003.2-3.2V40.8a3.203 3.203 0 00-3.2-3.2zm-32 28.8H9.6v-3.2h1.6v3.2zm0-19.2H9.6V44h1.6v3.2zm3.2 22.4V40.8h28.8l.002 28.8H14.4z" fill="#E96F6F"/><path d="M25.6 58.4h-6.4a1.6 1.6 0 100 3.2h6.4a1.6 1.6 0 100-3.2zm0 4.8h-6.4a1.6 1.6 0 000 3.2h6.4a1.6 1.6 0 000-3.2zM38.4 52a1.6 1.6 0 00-1.6 1.6v3.2a1.6 1.6 0 103.2 0v-3.2a1.6 1.6 0 00-1.6-1.6zm38.4-17.6h-24a3.203 3.203 0 00-3.2 3.2v12.8a3.203 3.203 0 003.2 3.2h24a3.203 3.203 0 003.2-3.2V37.6a3.203 3.203 0 00-3.2-3.2zm-24 16V37.6h24l.002 12.8H52.8zm24 6.4h-24a3.203 3.203 0 00-3.2 3.2v12.8a3.203 3.203 0 003.2 3.2h24a3.203 3.203 0 003.2-3.2V60a3.203 3.203 0 00-3.2-3.2zm-24 16V60h24l.002 12.8H52.8z" fill="#E96F6F"/><path d="M67.2 63.2h-4.8a1.6 1.6 0 000 3.2h4.8a1.6 1.6 0 000-3.2z" fill="#E96F6F"/></g><defs><clipPath id="clip0_242:1726"><path fill="#fff" d="M0 0h96v96H0z"/></clipPath></defs></svg>