<svg width="96" height="96" fill="none" xmlns="http://www.w3.org/2000/svg"><g clip-path="url(#clip0_242:1723)"><path d="M17.6 67.195a1.6 1.6 0 100-3.2 1.6 1.6 0 000 3.2zm19.2 0a1.6 1.6 0 100-3.2 1.6 1.6 0 000 3.2zm41.6 0a1.6 1.6 0 100-3.2 1.6 1.6 0 000 3.2zm-24-9.6H48v3.2h6.4v-3.2zm12.8 0h-6.4v3.2h6.4v-3.2z" fill="#2E2E2E"/><path fill-rule="evenodd" clip-rule="evenodd" d="M1.6 28.795a1.6 1.6 0 00-1.6 1.6v35.2a1.6 1.6 0 001.6 1.6h8.16a8 8 0 0015.68 0h3.52a8 8 0 0015.68 0h25.92a8 8 0 0015.68 0h8.16a1.6 1.6 0 001.6-1.6v-16c0-.023-.013-.045-.013-.067L92.8 50.982v6.613h-3.2v3.2h3.2v3.2h-6.56c0-.029-.02-.056-.026-.085a7.925 7.925 0 00-.414-1.331c-.062-.16-.147-.294-.22-.443a8.006 8.006 0 00-.46-.861c-.102-.16-.22-.306-.333-.456a8.016 8.016 0 00-.566-.687 8.372 8.372 0 00-.418-.407 8.027 8.027 0 00-.675-.557c-.16-.117-.32-.23-.48-.333a7.93 7.93 0 00-.8-.43c-.17-.082-.334-.169-.51-.239a7.921 7.921 0 00-.96-.296c-.16-.041-.31-.096-.472-.128a7.59 7.59 0 00-3.04 0c-.16.032-.32.087-.472.128a7.921 7.921 0 00-.96.296c-.176.07-.341.16-.51.239a7.93 7.93 0 00-.8.43c-.16.104-.32.218-.48.333a8.372 8.372 0 00-1.093.965 7.907 7.907 0 00-.567.686c-.114.15-.23.297-.333.456-.17.273-.324.557-.46.85-.073.148-.16.29-.22.443a7.93 7.93 0 00-.414 1.33c0 .03-.02.057-.026.086H44.64c0-.03-.02-.056-.026-.085a7.93 7.93 0 00-.414-1.331c-.062-.16-.147-.295-.22-.444a8.006 8.006 0 00-.46-.85c-.102-.16-.22-.305-.333-.455a8.016 8.016 0 00-.566-.687 8.372 8.372 0 00-.418-.407 8.027 8.027 0 00-.675-.557c-.16-.117-.32-.23-.48-.333a7.93 7.93 0 00-.8-.43c-.17-.082-.334-.169-.51-.239a7.921 7.921 0 00-.96-.296c-.16-.041-.31-.096-.472-.128a7.59 7.59 0 00-3.04 0c-.16.032-.32.087-.472.128a7.921 7.921 0 00-.96.296c-.176.07-.341.16-.51.239a7.93 7.93 0 00-.8.43c-.16.104-.32.218-.48.333a8.372 8.372 0 00-1.093.965 7.907 7.907 0 00-.567.686c-.114.15-.23.297-.333.456-.17.273-.324.557-.46.85-.073.148-.16.29-.22.443a7.93 7.93 0 00-.414 1.33c0 .03-.02.057-.026.086H25.44c0-.03-.02-.056-.026-.085A7.93 7.93 0 0025 62.568c-.062-.16-.147-.295-.22-.444a8.006 8.006 0 00-.46-.85c-.102-.16-.22-.305-.333-.455a8.016 8.016 0 00-.566-.687 8.372 8.372 0 00-.418-.407 8.027 8.027 0 00-.675-.557c-.16-.117-.32-.23-.48-.333a7.93 7.93 0 00-.8-.43c-.17-.082-.334-.169-.51-.239a7.921 7.921 0 00-.96-.296c-.16-.041-.31-.096-.472-.128a7.59 7.59 0 00-3.04 0c-.16.032-.32.087-.472.128a7.921 7.921 0 00-.96.296c-.176.07-.341.16-.51.239a7.93 7.93 0 00-.8.43c-.16.104-.32.218-.48.333a8.372 8.372 0 00-1.093.965 7.907 7.907 0 00-.567.686c-.114.15-.23.297-.333.456-.17.273-.324.557-.46.85-.073.148-.16.29-.22.443a7.93 7.93 0 00-.414 1.33c0 .03-.02.057-.026.086H3.2v-3.19H8a1.6 1.6 0 001.6-1.6v-6.4a1.6 1.6 0 00-1.6-1.6H3.2v-19.2h48.2v-3.2H1.6zm4.8 25.6H3.2v3.2h3.2v-3.2zm6.4 11.2a4.8 4.8 0 109.6 0 4.8 4.8 0 00-9.6 0zm19.2 0a4.8 4.8 0 109.6 0 4.8 4.8 0 00-9.6 0zm41.6 0a4.8 4.8 0 109.6 0 4.8 4.8 0 00-9.6 0z" fill="#2E2E2E"/><path fill-rule="evenodd" clip-rule="evenodd" d="M48 57.595h6.4v3.2H48v-3.2zm12.8 0h6.4v3.2h-6.4v-3.2zm-41.6 8a1.6 1.6 0 11-3.2 0 1.6 1.6 0 013.2 0zm17.6 1.6a1.6 1.6 0 100-3.2 1.6 1.6 0 000 3.2zm43.2-1.6a1.6 1.6 0 11-3.2 0 1.6 1.6 0 013.2 0z" fill="#2E2E2E"/><path fill-rule="evenodd" clip-rule="evenodd" d="M96 35.194v-4.8a1.6 1.6 0 00-1.6-1.6H50.263l-6.4-6.4H16.938l-6.4 6.4-4.138 3.2v14.4a1.6 1.6 0 001.6 1.6h63.888L92.8 50.983l3.2-1.388c0-.022-.013-.044-.013-.067a1.578 1.578 0 00-.11-.549L88.8 31.994h4v3.2H96zm-25.6-3.2H57.6v12.8h12.8v-12.8zm-16 12.8v-12.8H41.6v12.8h12.8zm-11.862-19.2H18.263l-3.2 3.2h30.675l-3.2-3.2zm-4.138 19.2v-12.8H25.6v12.8h12.8zm-16-12.8H9.6v12.8h12.8v-12.8zm51.2 13.013l18.24 2.605-6.507-15.618H73.6v13.013z" fill="#E96F6F"/></g><defs><clipPath id="clip0_242:1723"><path fill="#fff" d="M0 0h96v96H0z"/></clipPath></defs></svg>