<svg width="96" height="96" fill="none" xmlns="http://www.w3.org/2000/svg"><path fill-rule="evenodd" clip-rule="evenodd" d="M92.903 26.323H48.957l-3.789-7.579a3.081 3.081 0 00-2.77-1.71h-20.72a3.1 3.1 0 00-3.097 3.096v3.097a3.1 3.1 0 003.096 3.096h12.388v34.065H96V29.42a3.1 3.1 0 00-3.097-3.097zm-71.226-3.096h12.387a3.1 3.1 0 013.097 3.096v30.968h55.742v-27.87H48.957a3.081 3.081 0 01-2.77-1.712l-3.79-7.579h-20.72v3.097z" fill="#E96F6F"/><path d="M60.387 63.484a4.65 4.65 0 00-4.645 4.646 4.65 4.65 0 004.645 4.645 4.65 4.65 0 004.645-4.645 4.65 4.65 0 00-4.645-4.645zm0 6.194a1.55 1.55 0 01-1.548-1.548 1.55 1.55 0 011.548-1.549 1.55 1.55 0 011.549 1.549 1.55 1.55 0 01-1.549 1.548zm-43.355-6.194a4.65 4.65 0 00-4.645 4.646 4.65 4.65 0 004.645 4.645 4.65 4.65 0 004.645-4.645 4.65 4.65 0 00-4.645-4.645zm0 6.194a1.55 1.55 0 01-1.548-1.548 1.55 1.55 0 011.548-1.549 1.55 1.55 0 011.549 1.549 1.55 1.55 0 01-1.549 1.548zm61.936-6.194a4.65 4.65 0 00-4.645 4.646 4.65 4.65 0 004.645 4.645 4.65 4.65 0 004.645-4.645 4.65 4.65 0 00-4.645-4.645zm0 6.194a1.55 1.55 0 01-1.549-1.548 1.55 1.55 0 011.549-1.549 1.55 1.55 0 011.548 1.549 1.55 1.55 0 01-1.548 1.548zM10.065 48h10.838a3.875 3.875 0 003.871-3.87v-4.645a3.875 3.875 0 00-3.87-3.871h-7.356a3.89 3.89 0 00-3.096 1.548l-3.486 4.647a3.895 3.895 0 00-.772 2.32 3.875 3.875 0 003.87 3.872zm11.612-8.515v4.645a.776.776 0 01-.774.774h-5.419V38.71h5.42c.427 0 .773.349.773.775zM9.445 43.664l2.942-3.922v5.162h-2.322a.776.776 0 01-.62-1.24z" fill="#2E2E2E"/><path fill-rule="evenodd" clip-rule="evenodd" d="M30.968 57.29V32.518a3.1 3.1 0 00-3.097-3.097H10.088c-.997 0-1.939.485-2.521 1.297L.576 40.505A3.069 3.069 0 000 42.302v24.28a3.1 3.1 0 003.097 3.096h3.22c.756 5.243 5.267 9.29 10.715 9.29 5.45 0 9.96-4.047 10.715-9.29h21.925c.756 5.243 5.266 9.29 10.715 9.29 3.946 0 7.394-2.126 9.29-5.285 1.897 3.159 5.345 5.285 9.29 5.285 5.45 0 9.96-4.047 10.716-9.29h3.22A3.1 3.1 0 0096 66.58v-9.29H30.968zm38.71 5.286c.481-.8 1.055-1.538 1.72-2.188h-3.44a10.918 10.918 0 011.72 2.188zm-23.226-2.188h-3.097v6.193h3.097v-6.193zm-9.29 6.193h3.096v-6.193h-3.097v6.193zm15.655-6.193h-3.269v6.193h.124a10.823 10.823 0 013.145-6.193zm-25.07 6.193h6.317v-6.193h-9.462a10.805 10.805 0 013.145 6.193zm.124-34.064H10.088l-6.991 9.785v14.989H27.87V32.517zM9.462 60.387H3.097v6.194h3.22a10.823 10.823 0 013.145-6.193zM9.29 68.13c0 4.269 3.474 7.742 7.742 7.742 4.27 0 7.742-3.474 7.742-7.742 0-4.27-3.473-7.742-7.742-7.742-4.268 0-7.742 3.473-7.742 7.742zm43.355 0c0 4.269 3.473 7.742 7.742 7.742s7.742-3.474 7.742-7.742c0-4.27-3.473-7.742-7.742-7.742s-7.742 3.473-7.742 7.742zm18.58 0c0 4.269 3.474 7.742 7.743 7.742s7.742-3.474 7.742-7.742c0-4.27-3.473-7.742-7.742-7.742-4.27 0-7.742 3.473-7.742 7.742zm15.313-7.742a10.805 10.805 0 013.145 6.193h3.22v-6.193h-6.365z" fill="#2E2E2E"/><path fill-rule="evenodd" clip-rule="evenodd" d="M20.903 48H10.065a3.875 3.875 0 01-3.871-3.87c0-.832.274-1.656.772-2.321l3.486-4.647a3.892 3.892 0 013.096-1.548h7.355a3.875 3.875 0 013.871 3.87v4.646a3.875 3.875 0 01-3.87 3.87zm.774-3.87v-4.645a.776.776 0 00-.774-.775h-5.419v6.194h5.42a.776.776 0 00.773-.774zm-12.232-.466l2.942-3.922v5.162h-2.322a.776.776 0 01-.62-1.24zm2.942 24.466a4.65 4.65 0 014.645-4.645 4.65 4.65 0 014.645 4.645 4.65 4.65 0 01-4.645 4.645 4.65 4.65 0 01-4.645-4.645zm3.097 0a1.55 1.55 0 001.548 1.548 1.55 1.55 0 001.549-1.548 1.55 1.55 0 00-1.549-1.549 1.55 1.55 0 00-1.548 1.549zm40.258 0a4.65 4.65 0 014.645-4.645 4.65 4.65 0 014.645 4.645 4.65 4.65 0 01-4.645 4.645 4.65 4.65 0 01-4.645-4.645zm3.097 0a1.55 1.55 0 001.548 1.548 1.55 1.55 0 001.549-1.548 1.55 1.55 0 00-1.549-1.549 1.55 1.55 0 00-1.548 1.549zm20.129-4.645a4.65 4.65 0 00-4.645 4.645 4.65 4.65 0 004.645 4.645 4.65 4.65 0 004.645-4.645 4.65 4.65 0 00-4.645-4.645zm0 6.193a1.55 1.55 0 01-1.549-1.548 1.55 1.55 0 011.549-1.549 1.55 1.55 0 011.548 1.549 1.55 1.55 0 01-1.548 1.548z" fill="#2E2E2E"/></svg>