<svg width="96" height="96" fill="none" xmlns="http://www.w3.org/2000/svg"><path d="M24.236 62.686a8.51 8.51 0 108.509 8.51 8.52 8.52 0 00-8.509-8.51zm0 14.771a6.261 6.261 0 116.259-6.26 6.268 6.268 0 01-6.259 6.26z" fill="#2E2E2E"/><path d="M24.236 68.326a2.871 2.871 0 100 5.742 2.871 2.871 0 000-5.742zm0 3.491a.62.62 0 110-1.24.62.62 0 010 1.24zm50.952-9.131a8.511 8.511 0 108.508 8.51 8.521 8.521 0 00-8.508-8.51zm0 14.771a6.261 6.261 0 116.258-6.26 6.268 6.268 0 01-6.258 6.26z" fill="#2E2E2E"/><path d="M75.188 68.326a2.87 2.87 0 100 5.74 2.87 2.87 0 000-5.74zm0 3.491a.62.62 0 110-1.241.62.62 0 010 1.241z" fill="#2E2E2E"/><path fill-rule="evenodd" clip-rule="evenodd" d="M93.683 49.025h-4.424a14.579 14.579 0 003.133-9.015v-4.871a14.635 14.635 0 00-10.938-14.137v-1.867a1.125 1.125 0 00-2.25 0v1.463c-.473-.047-.95-.071-1.425-.071h-5.436v-1.391a1.125 1.125 0 10-2.25 0v1.39h-7.237a4.505 4.505 0 00-4.493-4.235h-5.99a4.505 4.505 0 00-4.492 4.236h-.005a14.63 14.63 0 00-14.613 14.611v4.872a14.527 14.527 0 003.736 9.731v6.418h-2.383l-2.856-2.058-.301-17.99a4.654 4.654 0 00-4.061-4.52v-2.826a1.125 1.125 0 00-1.125-1.125h-10.59a1.125 1.125 0 00-1.126 1.125v2.788h-2.28a4.62 4.62 0 00-4.155 2.567c-.373.744-.745 1.502-1.107 2.254-3.184 6.623-4.799 11.12-4.799 13.369v13.509a2.416 2.416 0 00-1.024 1.967v4.506a2.412 2.412 0 002.41 2.41h9.03a1.125 1.125 0 001.125-1.126v-2.012a7.99 7.99 0 017.99-7.991h4.495a7.988 7.988 0 017.992 7.991v2.012a1.125 1.125 0 001.125 1.125h3.82v.844a3.38 3.38 0 003.374 3.375h14.374a3.38 3.38 0 003.375-3.375v-.844h3.836a1.125 1.125 0 001.125-1.125v-2.012a7.99 7.99 0 017.99-7.991h4.033a7.993 7.993 0 017.989 7.991v2.012a1.125 1.125 0 102.25 0v-2.012l-.002-.08-.002-.067 5.553-6.45c.176-.206.273-.467.273-.738v-4.378a1.125 1.125 0 00-1.125-1.125h-.848v-.941h2.309a1.125 1.125 0 001.124-1.125V50.15a1.125 1.125 0 00-1.124-1.125zM16.806 29.89h8.34v1.663h-8.34V29.89zm-8.07 8.097h5.395v7.706L4.69 48.218c.52-2.195 1.93-5.769 4.048-10.231zm2.77 31.01v.887H3.602a.163.163 0 01-.16-.16V65.22a.163.163 0 01.121-.155.193.193 0 01.039-.004h8.689a10.215 10.215 0 00-.784 3.937zm4.875-23.904v-7.106h7.601c.005 0 .01 0 .015.003a.04.04 0 01.022.022.04.04 0 01.003.016v4.031a1.274 1.274 0 01-.378.91 1.3 1.3 0 01-.579.336l-6.684 1.788zm65.072-21.75a12.383 12.383 0 018.689 11.797v4.871a12.426 12.426 0 01-8.69 11.8V23.342zm0 30.809a14.586 14.586 0 005.606-2.876h2.064v4.885h-7.67v-2.009zm-9.11-31.375h5.435c.476 0 .952.03 1.425.086v1.502h-6.86v-1.588zm0 3.838h6.86v1.757h-6.86v-1.757zm0 4.007h6.86v1.755h-6.86v-1.755zm0 4.005h6.86v1.756h-6.86v-1.756zm0 4.006h6.86v1.757h-6.86v-1.757zm0 4.007h6.86v1.757h-6.86V42.64zm0 4.007h6.86v1.738h-6.86v-1.738zm0 3.988h6.86v1.652c-.473.056-.949.085-1.425.087h-5.436v-1.739zm0 3.989h5.435c.475 0 .952-.025 1.425-.072v1.607h-6.86v-1.535zM52.372 18.54h5.99a2.253 2.253 0 012.233 1.986H50.14a2.253 2.253 0 012.233-1.986zm17.72 36.082v1.536h-1.11l-.805-1.535h1.915zm-22.63-.01l-.812 1.546h-7.402v-4.37a14.414 14.414 0 008.215 2.824zm10.589 18.365a1.126 1.126 0 01-1.125 1.125H42.553a1.126 1.126 0 01-1.125-1.125v-6.086a1.126 1.126 0 011.125-1.125h14.374a1.127 1.127 0 011.125 1.125v6.086zm4.961-3.98v.886h-2.711v-2.992a3.379 3.379 0 00-3.375-3.375H42.553a3.379 3.379 0 00-3.375 3.375v2.992h-2.694v-.887a10.259 10.259 0 00-1.107-4.622v-1.588H65.12a10.281 10.281 0 00-2.106 6.21zm24.044-3.058a10.189 10.189 0 00-1.63-3.153h4.345l-2.715 3.153zm4.04-5.403h-8.042a10.148 10.148 0 00-5.77-1.781h-4.032a10.15 10.15 0 00-5.771 1.781H35.377V58.41h55.72v2.128zm1.46-7.57h-1.183v-1.692h1.184v1.693zm-74.525 1.06c-4.548 1.039-6.906 3.629-8.083 5.619a11.728 11.728 0 00-1.293 3.163h-4.19V50.606l19.183-5.128a3.55 3.55 0 002.356-2.063c.178-.43.27-.89.268-1.356v-4.031a2.293 2.293 0 00-2.29-2.291H9.832l.072-.147.23-.462a2.384 2.384 0 012.143-1.325H26.83a2.39 2.39 0 012.38 2.344l.292 17.411h-7.013c-1.737.015-2.713.095-4.456.469zm8.21 4.729c2.546 0 5.001.948 6.885 2.66V57.86l-2.846-2.052h-7.793c-1.593 0-2.463.076-3.955.413-5.214 1.191-6.973 4.698-7.551 6.589h2.604a10.223 10.223 0 018.16-4.054h4.497zm9.27-18.746v-4.871a12.377 12.377 0 0112.364-12.362h22.217v29.596h-3.1l-1.443-2.747a1.125 1.125 0 00-.996-.601H51.081a1.125 1.125 0 00-.996.601l-1.444 2.748h-.765A12.402 12.402 0 0135.513 40.01zm30.93 16.15l-2.567-4.885H51.759l-2.567 4.884h17.25z" fill="#2E2E2E"/><path d="M53.047 29.806c-.184.168-4.484 4.152-4.484 8.406a5.44 5.44 0 005.433 5.434 5.44 5.44 0 005.433-5.434c0-4.255-4.3-8.238-4.484-8.406a1.406 1.406 0 00-1.898 0zm3.57 8.406c-.36 4.997-9.6 2.64-2.621-5.34 1.148 1.322 2.62 3.451 2.62 5.34z" fill="#E96F6F"/></svg>