<svg width="96" height="96" fill="none" xmlns="http://www.w3.org/2000/svg"><path d="M63.531 36.498H48a1.406 1.406 0 100 2.813h.147v7.912c0 .776.63 1.406 1.406 1.406h12.425c.777 0 1.407-.63 1.407-1.406V39.31h.146a1.406 1.406 0 100-2.813zm-2.959 9.319H50.96V39.31h9.613v6.506zm-17.231-9.319H27.809a1.406 1.406 0 100 2.813h.147v7.912c0 .776.63 1.406 1.407 1.406h12.425c.777 0 1.406-.63 1.406-1.406V39.31h.147a1.406 1.406 0 100-2.813zm-2.96 9.319H30.77V39.31h9.613v6.506zM23.15 36.498H7.619a1.406 1.406 0 100 2.813h.146v7.912c0 .776.63 1.406 1.407 1.406h12.425c.777 0 1.406-.63 1.406-1.406V39.31h.147a1.406 1.406 0 100-2.813zm-2.96 9.319h-9.612V39.31h9.613v6.506z" fill="#E96F6F"/><path fill-rule="evenodd" clip-rule="evenodd" d="M94.594 69.115h-9.23a6.802 6.802 0 001.287-3.4h.058c3.592 0 6.713-2.05 8.258-5.042a1.4 1.4 0 00.443-.993 9.26 9.26 0 00.59-3.256c0-2.53-1-4.895-2.815-6.66l-1.981-1.98-12.425-12.426-.002-.002-3.821-3.821a9.219 9.219 0 00-6.646-2.801H46.3V25.48c0-.776-.63-1.406-1.407-1.406h-24.85c-.776 0-1.405.63-1.405 1.406v3.253H4.035A4.04 4.04 0 000 32.768V61.68a4.039 4.039 0 003.128 3.928 6.801 6.801 0 001.295 3.507H1.406a1.406 1.406 0 100 2.812h93.187a1.406 1.406 0 000-2.812zM68.31 31.546H4.035c-.674 0-1.222.548-1.222 1.222V52.03h88.655a6.695 6.695 0 00-.25-.256l-.015-.015-1.576-1.576h-9.142a6.008 6.008 0 01-3.777-1.323l-6.415-5.686a4.499 4.499 0 01-1.955-3.715 4.518 4.518 0 014.512-4.513h1.54l-1.434-1.434a6.44 6.44 0 00-4.646-1.966zm-46.86-2.813h22.037v-1.846H21.45v1.846zM78.534 46.72a3.22 3.22 0 001.951.651h6.33l-9.612-9.613H72.85a1.698 1.698 0 00-.926 3.124c.058.038.113.08.164.125l6.447 5.713zm14.46 8.123H2.813v3.4h90.113a6.521 6.521 0 00.068-3.4zM9.947 69.115h.003a4.033 4.033 0 003.974-3.4H5.973a4.033 4.033 0 003.974 3.4zm5.526 0h3.164v-3.4H16.76a6.804 6.804 0 01-1.287 3.4zm5.976 0h3.401v-3.4h-3.4v3.4zm6.213-3.4v3.4h3.164a6.8 6.8 0 01-1.287-3.4h-1.877zm8.688 3.4h.003a4.033 4.033 0 003.974-3.4h-7.951a4.033 4.033 0 003.974 3.4zm6.813-3.4a6.802 6.802 0 01-1.287 3.4h6.035a6.802 6.802 0 01-1.287-3.4h-3.46zm10.271 3.4h.004a4.033 4.033 0 003.974-3.4H49.46a4.033 4.033 0 003.974 3.4zm5.527 0h3.164v-3.4h-1.877a6.802 6.802 0 01-1.287 3.4zm5.977 0h3.4v-3.4h-3.4v3.4zm-1.407-6.213H86.71a6.456 6.456 0 004.524-1.846H2.813v.624c0 .674.548 1.222 1.222 1.222H63.53zm7.62 2.813v3.4h3.163a6.803 6.803 0 01-1.287-3.4H71.15zm8.686 3.4h.004a4.032 4.032 0 003.974-3.4h-7.952a4.033 4.033 0 003.974 3.4z" fill="#2E2E2E"/></svg>