<svg width="96" height="96" fill="none" xmlns="http://www.w3.org/2000/svg"><path d="M49.548 68.13a6.2 6.2 0 00-6.193 6.193 6.2 6.2 0 006.193 6.194 6.2 6.2 0 006.194-6.194 6.2 6.2 0 00-6.194-6.193zm0 9.29a3.1 3.1 0 01-3.096-3.097 3.1 3.1 0 013.096-3.096 3.1 3.1 0 013.097 3.096 3.1 3.1 0 01-3.097 3.097z" fill="#2E2E2E"/><path d="M71.226 61.936c-4.66 0-8.725 2.59-10.839 6.404-2.114-3.813-6.178-6.404-10.839-6.404-6.83 0-12.387 5.557-12.387 12.387S42.718 86.71 49.548 86.71c4.661 0 8.725-2.59 10.84-6.404 2.113 3.814 6.177 6.404 10.838 6.404 6.83 0 12.387-5.557 12.387-12.387s-5.557-12.387-12.387-12.387zM49.548 83.614c-5.123 0-9.29-4.167-9.29-9.29 0-5.124 4.167-9.291 9.29-9.291 5.124 0 9.29 4.167 9.29 9.29 0 5.124-4.166 9.29-9.29 9.29zm21.678 0c-5.124 0-9.29-4.167-9.29-9.29 0-5.124 4.166-9.291 9.29-9.291 5.123 0 9.29 4.167 9.29 9.29 0 5.124-4.167 9.29-9.29 9.29z" fill="#2E2E2E"/><path d="M71.226 68.13a6.2 6.2 0 00-6.194 6.193 6.2 6.2 0 006.194 6.194 6.2 6.2 0 006.193-6.194 6.2 6.2 0 00-6.193-6.193zm0 9.29a3.1 3.1 0 01-3.097-3.097 3.1 3.1 0 013.097-3.096 3.1 3.1 0 013.097 3.096 3.1 3.1 0 01-3.097 3.097z" fill="#2E2E2E"/><path fill-rule="evenodd" clip-rule="evenodd" d="M96 9.291v9.29h-4.645v38.71H96v9.29H82.972L75.23 58.84H45.544L33.157 71.227H18.581v13.935H9.29V71.226H6.193V68.13H0V57.29h3.097v-7.742H9.29V18.581H4.645v-9.29H96zm-86.71 48v-4.645H6.194v4.645H9.29zm-3.096 7.742v-3.097H9.29v-1.548H3.097v4.645h3.097zm6.193 17.032h3.097V71.227h-3.097v10.838zm80.516-18.58v-3.097H86.07l-7.742-7.742h-35.88L30.06 65.033H9.29v3.097h22.585l12.387-12.387h32.25l7.742 7.742h8.65zM7.742 12.388v3.097h85.161v-3.097H7.742zm21.036 49.548L41.165 49.55h38.351l2.548 2.456 5.287 5.286h.907v-38.71h-75.87v43.355h16.39z" fill="#2E2E2E"/><path d="M20.129 49.549h-3.097v7.742h3.097v-7.742zm0-27.871h-3.097v24.774h3.097V21.678zm12.387 0H29.42V57.29h3.097V21.678zm49.548 0h-3.096v7.742h3.096v-7.742zM44.903 49.549V21.678h-3.097v27.87h3.097zm12.387 0V21.678h-3.096v27.87h3.096zm12.387 0V21.678h-3.096v27.87h3.096zm9.291-17.033V49.55l3.096 2.455V32.516h-3.096z" fill="#E96F6F"/></svg>