<svg width="96" height="96" fill="none" xmlns="http://www.w3.org/2000/svg"><path d="M87 6H9c-4.136 0-7.5 3.432-7.5 7.65v49.2c0 4.218 3.364 7.65 7.5 7.65h30V75H21a4.505 4.505 0 00-4.5 4.5c0 2.481 2.019 4.5 4.5 4.5h39.151c.698 3.418 3.726 6 7.349 6h9c4.135 0 7.5-3.365 7.5-7.5v-12h3c4.135 0 7.5-3.432 7.5-7.65v-49.2C94.5 9.432 91.135 6 87 6zM42 70.5h12V75H42v-4.5zm18 0V75h-3v-4.5h3zm-40.5 9c0-.826.674-1.5 1.5-1.5h39v3H21c-.826 0-1.5-.674-1.5-1.5zm61.5 3c0 2.481-2.019 4.5-4.5 4.5h-9a4.505 4.505 0 01-4.5-4.5V48c0-2.481 2.019-4.5 4.5-4.5h9c2.481 0 4.5 2.019 4.5 4.5v34.5zm-4.5-42h-9c-4.136 0-7.5 3.364-7.5 7.5v13.5H12c-.826 0-1.5-.715-1.5-1.593V16.593c0-.877.674-1.593 1.5-1.593h72c.826 0 1.5.716 1.5 1.593v43.313c0 .879-.674 1.594-1.5 1.594V48c0-4.136-3.365-7.5-7.5-7.5zm15 22.35c0 2.563-2.019 4.65-4.5 4.65h-3v-3c2.481 0 4.5-2.061 4.5-4.593V16.593C88.5 14.061 86.481 12 84 12H12c-2.481 0-4.5 2.061-4.5 4.593v43.313c0 2.533 2.019 4.594 4.5 4.594h48v3H9c-2.481 0-4.5-2.087-4.5-4.65v-49.2C4.5 11.086 6.519 9 9 9h78c2.481 0 4.5 2.086 4.5 4.65v49.2z" fill="#2E2E2E"/><path d="M72 61.5c-4.135 0-7.5 3.365-7.5 7.5s3.365 7.5 7.5 7.5 7.5-3.365 7.5-7.5-3.365-7.5-7.5-7.5zm0 12a4.505 4.505 0 01-4.5-4.5c0-2.481 2.019-4.5 4.5-4.5s4.5 2.019 4.5 4.5-2.019 4.5-4.5 4.5zm-7.5 6h6v3h-6v-3zM78 78h-3v1.5h-1.5v3H75V84h3v-1.5h1.5v-3H78V78zM66 46.5h3v3h-3v-3zm0 4.5h3v3h-3v-3zm4.5 0h3v3h-3v-3zm4.5 0h3v3h-3v-3zm-9 4.5h3v3h-3v-3zm4.5 0h3v3h-3v-3zm4.5 0h3v3h-3v-3zm-4.5-9h3v3h-3v-3zm4.5 0h3v3h-3v-3z" fill="#E96F6F"/></svg>