<svg version="1.0" xmlns="http://www.w3.org/2000/svg" width="134.667" height="134.667" viewBox="0 0 101 101"><path d="M49.8 3.5c-.3.6-6 17.6-12.6 38C19.5 95.8 19.2 97 19.9 97c.3 0 2.9-1.7 5.6-3.8C38.5 83.5 49.1 76 50 76c.5 0 7.7 4.9 16 11 8.2 6 15 10.7 15 10.4 0-.6-4.9-15.7-17.5-54.4-4.6-14-9.5-28.9-10.8-33-1.3-4.1-2.6-7-2.9-6.5zm15.2 36c0 .6 1.5 5.4 3.3 10.8l3.2 9.6 7-5.1c3.9-2.9 10.3-7.6 14.4-10.5 6.6-4.8 7-5.3 4.5-5.3-1.6-.1-9.5-.2-17.7-.3-9.6-.1-14.7.2-14.7.8zm-62.8.8c1.1 1.1 8.6 6.6 17.8 13.2 1.5 1.1 4.1 3 5.8 4.3l3 2.2 3.5-10.5L35.9 39H18.4C4 39 1.1 39.2 2.2 40.3z"/></svg>